<?xml version="1.0" encoding="UTF-8" standalone="no"?>
<!-- Created with Inkscape (http://www.inkscape.org/) -->

<svg
   version="1.1"
   id="svg2"
   width="1600"
   height="533.33331"
   viewBox="0 0 1600 533.33331"
   sodipodi:docname="rm438-nunny-106.eps"
   xmlns:inkscape="http://www.inkscape.org/namespaces/inkscape"
   xmlns:sodipodi="http://sodipodi.sourceforge.net/DTD/sodipodi-0.dtd"
   xmlns="http://www.w3.org/2000/svg"
   xmlns:svg="http://www.w3.org/2000/svg">
  <defs
     id="defs6" />
  <sodipodi:namedview
     id="namedview4"
     pagecolor="#ffffff"
     bordercolor="#000000"
     borderopacity="0.25"
     inkscape:showpageshadow="2"
     inkscape:pageopacity="0.0"
     inkscape:pagecheckerboard="0"
     inkscape:deskcolor="#d1d1d1" />
  <g
     id="g8"
     inkscape:groupmode="layer"
     inkscape:label="ink_ext_XXXXXX"
     transform="matrix(1.3333333,0,0,-1.3333333,0,533.33333)">
    <g
       id="g10"
       transform="scale(0.1)">
      <path
         d="M 12000,0 H 0 V 4000 H 12000 V 0"
         style="fill:#f6f3f1;fill-opacity:1;fill-rule:nonzero;stroke:none"
         id="path12" />
      <path
         d="m 2961.96,1973.02 c -32.1,3.79 -63.89,0.92 -95.8,1.06 -40.69,0.17 -42.72,3.22 -37.02,59.98 1.46,14.53 3.25,28.99 4.3,43.6 0.92,12.75 4.86,17.07 13.84,12.96 17.36,-7.95 34.98,-14.7 52.22,-23.17 41.92,-20.59 82.51,-45.84 120.77,-78.61 4.64,-3.99 10.51,-6.29 14.37,-20.28 -25.75,4.98 -49.27,1.69 -72.68,4.46 z m 127.88,-28.56 c 30.9,1.32 58.91,2.61 86.94,3.67 13.18,0.5 26.39,1.49 39.57,0.57 17.12,-1.18 19.75,-6.42 15.57,-29.69 -7.29,-40.63 -15.23,-80.99 -22.58,-121.6 -5.22,-28.88 -8.44,-58.62 -17.23,-87.45 -17.27,91.95 -48.07,172.04 -102.27,234.5 z m -993.65,249.32 c 28.2,81.58 61.65,157.9 107.8,221.41 1.47,2.03 2.95,4.05 4.52,5.92 2.59,3.06 5.21,7.13 9.02,4.95 4.88,-2.79 4.47,-9.52 4.73,-15.3 0.18,-3.92 -0.08,-7.89 -0.33,-11.8 -4.3,-66 -18.59,-128.31 -30.15,-191.63 -1.82,-9.99 -4.73,-18.15 -13.49,-18.46 -26.97,-0.94 -53.93,-2.22 -82.17,-3.43 0.03,6.39 -0.21,7.55 0.07,8.34 z m 270.36,15.97 c 27.35,64.04 57.81,124.67 95.98,176.61 6.66,9.06 13.86,25.06 23.22,19.62 10.05,-5.84 5.39,-24.75 6.54,-37.87 4.86,-55.74 -3.75,-109.82 -6.42,-164.64 -0.52,-10.59 -3.74,-18.26 -13.14,-17.28 -34.08,3.56 -68.12,-0.68 -102.22,4.36 -1.98,0.29 -3.92,1.62 -6.59,2.78 -0.72,7.96 0.86,12.26 2.63,16.42 z m -53.76,-86.17 c -16.14,-41.71 -28.71,-85.85 -41.68,-129.68 -4.86,-16.42 -11.78,-24.42 -24.67,-24.36 -21.53,0.09 -43.01,-1.81 -64.54,-1.83 -14.99,-0.02 -18.3,5.75 -14.54,24.61 10.29,51.52 21.01,102.85 31.55,154.26 2.46,12.01 6.53,21.68 16.72,21.51 35.27,-0.6 70.54,-1.33 109.74,-2.08 -5.19,-17.73 -8.06,-30.75 -12.58,-42.43 z M 2030.7,1962.23 c -13.95,-0.08 -15.25,2.61 -9.42,19.93 12.99,38.58 26.41,76.86 39.69,115.23 5.43,15.7 11.4,31.03 16.29,47.09 4.01,13.19 10.4,19.44 20.6,19.68 23.65,0.56 47.27,2.11 70.93,2.29 13.37,0.1 14.84,-2.94 11.37,-21.12 -9.92,-51.83 -19.97,-103.61 -30.39,-155.22 -4.71,-23.35 -5.41,-23.66 -23.11,-24.77 -15.27,-0.97 -30.58,-1.37 -45.87,-2.03 -0.02,0.3 -0.03,0.61 -0.04,0.91 -16.69,-0.71 -33.35,-1.9 -50.05,-1.99 z m 549.3,-4.46 c 8.37,0.19 11.63,-5.59 8.65,-17.07 -1.18,-4.57 -2.2,-9.27 -3.64,-13.66 -24.33,-74.09 -49.07,-147.86 -78.37,-218.14 -8.74,-20.97 -18.84,-40.5 -31.24,-57.37 -3.42,-4.65 -7.26,-10.01 -12.69,-6.99 -5.63,3.13 -5.19,11.1 -5.86,17.87 -3.31,33.71 -1.31,67.45 0.59,100.49 3.32,57.72 10.42,114.8 15.82,172.17 1.34,14.19 7.28,19.87 16.94,20.13 14.62,0.39 29.22,1.18 43.83,1.81 0.02,-0.37 0.04,-0.74 0.06,-1.11 15.3,0.65 30.6,1.52 45.91,1.87 z m -87.42,18.83 c -11.82,0.07 -13.61,3.43 -11.83,19.62 5.34,48.45 10.94,96.83 16.32,145.27 1.5,13.47 5.29,20.14 16.47,18.82 41.03,-4.84 82.13,-7.83 123.08,-15.05 12.17,-2.15 14.47,-7.4 9.4,-23.61 -13.08,-41.82 -26.59,-83.34 -39.77,-125.09 -3.45,-10.92 -8.9,-16.3 -17.61,-16.43 -16.02,-0.25 -32.02,-1.25 -48.02,-1.93 -0.01,0.09 -0.01,0.17 -0.01,0.26 -16.01,-0.68 -32,-1.95 -48.03,-1.86 z m 138.11,35.8 c 10.36,32.75 21.09,65.26 31.98,97.65 8.52,25.34 12.41,29.19 32.1,24.99 26.9,-5.73 53.67,-13.25 80.45,-20.37 10.29,-2.74 20.49,-6.38 30.7,-9.83 7.98,-2.7 11.89,-8.87 10.65,-21.41 -2.78,-28.1 -4.95,-56.35 -7.3,-84.56 -1.23,-14.79 -6.19,-23.41 -17.58,-21.61 -51.48,8.14 -102.63,-4.68 -154.12,3.6 -4.04,0.65 -8.38,-0.91 -12.24,4.73 -1.61,9.99 2.67,18.31 5.36,26.81 z m -387.73,-66.56 c 10.84,-1.67 11.92,-4.14 8.05,-19.02 -3.32,-12.81 -7.4,-25.18 -11.11,-37.77 -21.48,-72.77 -42.97,-145.54 -68.68,-215.42 -10.49,-28.52 -22.52,-55.57 -36.8,-80.45 -2.41,-4.21 -5.37,-10.09 -10.3,-6.39 -3.51,2.64 -3,8.53 -3.44,13.32 -4.17,45.84 0.5,90.68 4.79,135.36 5.81,60.44 16.51,119.22 27.77,177.73 6.13,31.86 6.44,32.45 29.14,33.74 5.56,0.32 11.13,0.49 19.03,0.83 12.28,1.56 26.93,0.31 41.55,-1.93 z m 582.87,263.74 c -1.4,-20.51 -2.24,-41.18 -4.49,-61.46 -2.27,-20.57 -5.81,-24.23 -19.37,-19.41 -34.78,12.35 -69.96,20.63 -105.18,28.82 -11.93,2.78 -14.38,8.83 -8.34,24.52 9.81,25.54 20.55,50.38 31.5,74.95 21.99,49.34 47.38,94.89 76.76,135.67 6.1,8.46 12.36,22.67 21.98,17.03 9.66,-5.67 6.92,-22.47 8.21,-34.8 1.04,-9.79 1.08,-19.73 1.57,-29.6 1.37,-45.45 0.44,-90.69 -2.64,-135.72 z m -523.47,-241.02 c -15.35,-0.17 -17.88,5.16 -12.01,24.76 15.55,51.91 32.25,103 50.47,153.07 6.16,16.94 14.77,24.32 28.07,22.43 32.65,-4.64 65.37,-0.79 98.01,-6.88 12.84,-2.4 14.03,-4.11 12.04,-22.91 -5.12,-48.42 -10.72,-96.7 -15.77,-145.14 -1.51,-14.51 -7.39,-19.3 -16.99,-19.59 -24.33,-0.73 -48.63,-1.97 -72.95,-3.01 0,0.03 0,0.06 0,0.09 -23.62,-1 -47.22,-2.57 -70.87,-2.82 z m -256.21,193.26 c 14.82,0.35 16.73,-3.66 10.46,-22.18 -17.79,-52.61 -36.25,-104.75 -53.97,-157.42 -5.4,-16.04 -13.58,-22.23 -26.1,-22.56 -45.27,-1.22 -90.48,-3.72 -135.73,-5.2 -17.26,-0.57 -18.96,2.38 -14.95,25.31 8.62,49.36 18.12,98.37 26.42,147.84 3.28,19.54 10.77,26.72 24.78,26.75 27.87,0.05 55.68,2.04 83.52,3.23 -0.01,0.24 -0.03,0.49 -0.04,0.73 28.54,1.22 57.05,2.82 85.61,3.5 z m -230.32,-249.3 c 1.95,13.95 6.86,19.97 16.66,20.34 45.9,1.73 91.78,4.06 137.69,5.5 13.37,0.42 15.3,-4.1 9.08,-20.89 -14.32,-38.7 -28.52,-77.55 -44.06,-115.21 -23.82,-57.74 -46.06,-117.07 -77.06,-168.03 -8.54,-14.04 -17.59,-27.32 -30.09,-34.22 -20.45,-11.31 -30.06,-2.46 -32.09,28.95 -0.57,8.88 -0.89,17.77 -1.33,26.66 -2.13,87.7 9.38,172.3 21.2,256.9 z m 1475.08,429.5 c -8.28,-108.65 -22.21,-215.54 -41.67,-320.67 -0.87,-4.74 -1.89,-9.41 -2.67,-14.18 -5.86,-36.01 -5.83,-36.55 -30.96,-36.7 -43.19,-0.25 -86.4,0.09 -129.6,0.51 -15.87,0.15 -17.84,4.4 -10.21,24.08 45.31,116.79 92.49,231.82 156.84,329.83 15.71,23.92 31.97,47.21 54.84,65.97 4.24,-19.53 4.54,-34.26 3.43,-48.84 z m -469.86,-424.3 c 2.51,33.64 3.27,33.92 26.27,34.92 47.95,2.1 95.96,-1.18 143.97,-4.37 6.27,-0.42 12.54,-0.42 18.8,-0.4 26.34,0.1 26.54,-0.01 14.85,-34.33 -11.32,-33.22 -22.57,-66.53 -34.81,-99.05 -23.2,-61.67 -47.62,-122.27 -78.99,-176.42 -7.88,-13.59 -16.85,-25.29 -26.35,-36.34 -8.78,-10.24 -19.19,-14.37 -30.74,-14.24 -16.9,0.2 -26.08,9.83 -30.84,32.65 -5.04,24.17 -6.11,48.75 -6.13,73.47 -0.01,10.84 -0.07,21.69 -0.1,28.58 -4.11,68.35 -0.68,132.04 4.07,195.53 z m -1570.85,88.39 c 63.6,31.83 129.04,55.67 195.4,74.43 56.15,15.88 112.77,29.25 169.81,39.23 68.73,12.02 137.56,22.98 206.91,28.52 13.67,1.1 15.48,-0.39 12.42,-18.75 -8.9,-53.3 -18.49,-106.33 -27.78,-159.48 -1.93,-11.03 -6.5,-15.39 -14.94,-15.21 -65.46,1.38 -130.75,-3.43 -196.33,0.93 -66.12,4.39 -132.24,8.07 -198.38,10.45 -55.6,2 -111.37,6.51 -166.95,15.38 -2.73,0.44 -5.66,0.78 -7.16,7.18 7.18,10.16 17.66,12.65 27,17.32 z m 646.21,311.85 c 2.14,8.72 6.17,14.64 13.53,15.33 8.64,0.8 13.56,9.33 16.31,19.72 7.75,29.27 13.57,59.47 17.14,90.52 1.26,10.92 0.75,22.65 -9,26.83 -8.45,3.62 -13.19,-4.39 -16.32,-13.29 -5.82,-16.51 -11.04,-33.48 -16.24,-50.44 -20.85,-67.95 -36.96,-138.58 -52.9,-209.25 -3.71,-16.44 -9.5,-23.19 -21.86,-24.18 -29.82,-2.4 -59.82,-4.61 -89.14,-11.29 -28.15,-6.41 -56.86,-4.31 -84.92,-11.66 -38.71,-10.14 -78.15,-15.2 -117.16,-23.52 -37.66,-8.04 -75.15,-16.97 -112.25,-28.14 -45.91,-13.83 -91.31,-30.52 -136.13,-49.71 -28.36,-12.14 -56.34,-25.8 -83.33,-42.81 -7.5,-4.72 -16.22,-11.17 -13.88,-25.4 2.13,-12.98 11.3,-16.98 19.75,-19.65 2.72,-0.85 5.57,-0.64 8.35,-0.97 16.7,-1.96 33.43,-3.41 50.09,-6.02 62.65,-9.85 125.41,-11.5 188.07,-13.39 53.66,-1.63 107.28,-7.23 160.98,-7.37 52.19,-0.13 104.52,-5.36 156.71,-2.82 27.64,1.35 28.15,0.47 22.58,-36.52 -10.4,-69.08 -16.68,-139.16 -19.09,-210.07 -0.76,-22.57 0.14,-45.53 1.83,-68.16 2.11,-28.39 12.5,-40.01 32.28,-40.95 23.95,-1.12 40.3,16.82 54.89,39.78 26.26,41.32 46.22,89.05 65.88,136.84 21.4,52.01 41.6,105.08 61.35,158.45 7.73,20.89 17.12,32.06 35.16,31.59 31.36,-0.82 62.66,2.18 94.01,2.91 15.82,0.37 17.84,-3.06 13.78,-23.86 -10.3,-52.81 -18.29,-106.42 -25.16,-160.48 -7.03,-55.26 -10.35,-111.02 -8.08,-167.63 1.38,-34.14 21.01,-35.95 34.36,-24.97 9.66,7.95 16.4,20.5 22.41,33.53 19.53,42.3 35.96,87.12 51.14,132.96 19.57,59.04 38.03,118.86 54.17,180.03 6.93,26.29 17.94,34.63 37.06,34.64 43.21,0.04 86.35,2.84 129.52,4.46 4.87,0.19 9.76,0.31 14.63,-0.03 6.76,-0.47 10.5,-5.34 9.68,-15.36 -0.48,-5.85 -1.38,-11.61 -2.04,-17.43 -8.38,-73.7 -14.22,-147.92 -15.99,-222.92 -0.35,-14.72 -0.06,-29.77 1.57,-44.39 3.48,-31.26 21.75,-43.12 40.24,-26.52 5.13,4.61 9.53,11.03 13.74,17.32 10.86,16.24 19.77,34.63 27.87,53.88 31.3,74.33 58.45,151.84 82.49,231.61 5.65,18.75 13.34,27.01 27.96,26.79 25.79,-0.4 51.52,2.02 77.31,1.99 26.46,-0.03 52.96,-1.3 79.45,-2.56 14.06,-0.67 15.96,-3.92 15.62,-22.88 -0.05,-2.95 -0.53,-5.85 -0.7,-8.8 -5.28,-88.37 -8.41,-176.89 -2.02,-266.1 1.06,-14.82 1.91,-29.57 5.43,-43.95 8.16,-33.37 22.85,-47.98 47.73,-48.03 24.88,-0.05 43.13,16.85 59.12,41.14 22.03,33.49 40.45,70.72 57.45,109.59 28.92,66.13 52.82,136.21 77.34,205.82 9.68,27.49 11.84,28.36 28.44,8.56 78.61,-93.74 108.9,-212.03 96.66,-351.67 -0.69,-7.8 -1.74,-15.62 -1.62,-23.45 0.16,-10.46 -1.37,-24.49 8.87,-26.64 9.88,-2.06 11.96,10.67 12.85,21.71 1.19,14.63 2.27,29.37 2.33,44.13 0.08,20.88 2.1,41.02 5.33,61.23 13.72,85.96 30.24,170.74 45.89,255.9 6.23,33.86 5.66,33.41 29.75,35.46 41.74,3.55 83.62,-1.16 125.42,-1.4 27.9,-0.16 55.74,-2.81 83.57,-6.14 30.69,-3.66 61.2,3.4 91.95,-2.98 6.78,-1.41 13.16,3.83 12.2,14.9 -1.06,12.31 -7.74,15.51 -15.77,13.38 -6.78,-1.8 -13.58,-4.76 -20.43,-4.64 -39.01,0.63 -78.06,0.81 -117.07,3.51 -36.24,2.5 -72.44,7.38 -108.66,5.5 -16.7,-0.87 -33.43,-1.3 -50.17,-1.13 -17.83,0.19 -20.41,4.46 -15.99,28.02 9.59,51.07 18.04,102.54 25.28,154.5 8.98,64.4 18.5,128.64 21.46,194.68 0.8,17.76 0.66,35.69 -3.2,53.05 -3.78,16.94 -10.86,22.33 -22.55,18.2 -6.74,-2.39 -12.77,-6.87 -18.34,-12.81 -13.69,-14.59 -26.91,-29.8 -38.73,-47.5 -50.1,-75 -91.8,-158.81 -127.8,-248.69 -12.86,-32.1 -25.6,-64.32 -38.57,-96.33 -8.34,-20.59 -11.12,-21.81 -26.24,-9.06 -13.41,11.3 -26.69,22.8 -40.6,32.87 -41.8,30.25 -85.56,52.03 -130.08,71.67 -29.84,13.17 -27.3,5.05 -23.58,47.89 5.26,60.63 7.25,121.46 7.86,182.67 0.23,23.04 -1.77,45.54 -5.47,67.77 -5.75,34.55 -21.26,43.59 -41.96,25.77 -11.27,-9.7 -19.96,-23.46 -28.95,-36.74 -40.56,-59.94 -72.18,-129.2 -99.41,-202.43 -8.36,-22.5 -18.69,-28.76 -34.85,-24.5 -9.69,2.56 -19.39,3.36 -29.17,4.26 -29.23,2.69 -58.31,9.3 -87.69,9.66 -14.88,0.19 -16.66,5.01 -15.35,25.82 2.72,43.08 5.93,86.08 8.9,129.11 1.57,22.69 1.56,45.52 -3.16,67.77 -6.92,32.64 -21.44,40.84 -41.48,24.64 -9.66,-7.81 -17.32,-18.91 -24.95,-30.01 -36.91,-53.71 -68.94,-112.97 -94.45,-178.83 -8.76,-22.63 -18.46,-34.13 -37.48,-27.73 -6.65,2.24 -13.9,0.37 -20.86,0.22 -23,-0.52 -45.99,-0.95 -68.97,-1.74 -9.44,-0.33 -13,5.27 -10.61,18.18 1.05,5.67 2.15,11.33 3.14,17.03 7.89,45.63 16.14,91.12 23.47,136.96 3.98,24.84 6.53,50.44 2.57,76.23 -3.53,23 -12.9,29.11 -28,20.17 -5.82,-3.44 -10.81,-8.53 -15.12,-14.81 -8.57,-12.51 -17.14,-25.03 -25.33,-38.03 -37.16,-58.99 -65.49,-126.58 -90.9,-196.79 -6.77,-18.71 -15.8,-26.24 -30.85,-26.61 -55.73,-1.38 -111.39,-4.44 -167.09,-6.67 -5.41,-0.22 -11.05,-2.41 -18.76,4.64 9.06,47.17 20.49,92.03 31.55,137.06"
         style="fill:#fbc657;fill-opacity:1;fill-rule:nonzero;stroke:none"
         id="path14" />
      <path
         d="m 2961.96,1973.02 c -32.1,3.79 -63.89,0.92 -95.8,1.06 -40.69,0.17 -42.72,3.22 -37.02,59.98 1.46,14.53 3.25,28.99 4.3,43.6 0.92,12.75 4.86,17.07 13.84,12.96 17.36,-7.95 34.98,-14.7 52.22,-23.17 41.92,-20.59 82.51,-45.84 120.77,-78.61 4.64,-3.99 10.51,-6.29 14.37,-20.28 -25.75,4.98 -49.27,1.69 -72.68,4.46 z m 127.88,-28.56 c 30.9,1.32 58.91,2.61 86.94,3.67 13.18,0.5 26.39,1.49 39.57,0.57 17.12,-1.18 19.75,-6.42 15.57,-29.69 -7.29,-40.63 -15.23,-80.99 -22.58,-121.6 -5.22,-28.88 -8.44,-58.62 -17.23,-87.45 -17.27,91.95 -48.07,172.04 -102.27,234.5 z m -993.65,249.32 c 28.2,81.58 61.65,157.9 107.8,221.41 1.47,2.03 2.95,4.05 4.52,5.92 2.59,3.06 5.21,7.13 9.02,4.95 4.88,-2.79 4.47,-9.52 4.73,-15.3 0.18,-3.92 -0.08,-7.89 -0.33,-11.8 -4.3,-66 -18.59,-128.31 -30.15,-191.63 -1.82,-9.99 -4.73,-18.15 -13.49,-18.46 -26.97,-0.94 -53.93,-2.22 -82.17,-3.43 0.03,6.39 -0.21,7.55 0.07,8.34 z m 270.36,15.97 c 27.35,64.04 57.81,124.67 95.98,176.61 6.66,9.06 13.86,25.06 23.22,19.62 10.05,-5.84 5.39,-24.75 6.54,-37.87 4.86,-55.74 -3.75,-109.82 -6.42,-164.64 -0.52,-10.59 -3.74,-18.26 -13.14,-17.28 -34.08,3.56 -68.12,-0.68 -102.22,4.36 -1.98,0.29 -3.92,1.62 -6.59,2.78 -0.72,7.96 0.86,12.26 2.63,16.42 z m -53.76,-86.17 c -16.14,-41.71 -28.71,-85.85 -41.68,-129.68 -4.86,-16.42 -11.78,-24.42 -24.67,-24.36 -21.53,0.09 -43.01,-1.81 -64.54,-1.83 -14.99,-0.02 -18.3,5.75 -14.54,24.61 10.29,51.52 21.01,102.85 31.55,154.26 2.46,12.01 6.53,21.68 16.72,21.51 35.27,-0.6 70.54,-1.33 109.74,-2.08 -5.19,-17.73 -8.06,-30.75 -12.58,-42.43 z M 2030.7,1962.23 c -13.95,-0.08 -15.25,2.61 -9.42,19.93 12.99,38.58 26.41,76.86 39.69,115.23 5.43,15.7 11.4,31.03 16.29,47.09 4.01,13.19 10.4,19.44 20.6,19.68 23.65,0.56 47.27,2.11 70.93,2.29 13.37,0.1 14.84,-2.94 11.37,-21.12 -9.92,-51.83 -19.97,-103.61 -30.39,-155.22 -4.71,-23.35 -5.41,-23.66 -23.11,-24.77 -15.27,-0.97 -30.58,-1.37 -45.87,-2.03 -0.02,0.3 -0.03,0.61 -0.04,0.91 -16.69,-0.71 -33.35,-1.9 -50.05,-1.99 z m 549.3,-4.46 c 8.37,0.19 11.63,-5.59 8.65,-17.07 -1.18,-4.57 -2.2,-9.27 -3.64,-13.66 -24.33,-74.09 -49.07,-147.86 -78.37,-218.14 -8.74,-20.97 -18.84,-40.5 -31.24,-57.37 -3.42,-4.65 -7.26,-10.01 -12.69,-6.99 -5.63,3.13 -5.19,11.1 -5.86,17.87 -3.31,33.71 -1.31,67.45 0.59,100.49 3.32,57.72 10.42,114.8 15.82,172.17 1.34,14.19 7.28,19.87 16.94,20.13 14.62,0.39 29.22,1.18 43.83,1.81 0.02,-0.37 0.04,-0.74 0.06,-1.11 15.3,0.65 30.6,1.52 45.91,1.87 z m -87.42,18.83 c -11.82,0.07 -13.61,3.43 -11.83,19.62 5.34,48.45 10.94,96.83 16.32,145.27 1.5,13.47 5.29,20.14 16.47,18.82 41.03,-4.84 82.13,-7.83 123.08,-15.05 12.17,-2.15 14.47,-7.4 9.4,-23.61 -13.08,-41.82 -26.59,-83.34 -39.77,-125.09 -3.45,-10.92 -8.9,-16.3 -17.61,-16.43 -16.02,-0.25 -32.02,-1.25 -48.02,-1.93 -0.01,0.09 -0.01,0.17 -0.01,0.26 -16.01,-0.68 -32,-1.95 -48.03,-1.86 z m 138.11,35.8 c 10.36,32.75 21.09,65.26 31.98,97.65 8.52,25.34 12.41,29.19 32.1,24.99 26.9,-5.73 53.67,-13.25 80.45,-20.37 10.29,-2.74 20.49,-6.38 30.7,-9.83 7.98,-2.7 11.89,-8.87 10.65,-21.41 -2.78,-28.1 -4.95,-56.35 -7.3,-84.56 -1.23,-14.79 -6.19,-23.41 -17.58,-21.61 -51.48,8.14 -102.63,-4.68 -154.12,3.6 -4.04,0.65 -8.38,-0.91 -12.24,4.73 -1.61,9.99 2.67,18.31 5.36,26.81 z m -387.73,-66.56 c 10.84,-1.67 11.92,-4.14 8.05,-19.02 -3.32,-12.81 -7.4,-25.18 -11.11,-37.77 -21.48,-72.77 -42.97,-145.54 -68.68,-215.42 -10.49,-28.52 -22.52,-55.57 -36.8,-80.45 -2.41,-4.21 -5.37,-10.09 -10.3,-6.39 -3.51,2.64 -3,8.53 -3.44,13.32 -4.17,45.84 0.5,90.68 4.79,135.36 5.81,60.44 16.51,119.22 27.77,177.73 6.13,31.86 6.44,32.45 29.14,33.74 5.56,0.32 11.13,0.49 19.03,0.83 12.28,1.56 26.93,0.31 41.55,-1.93 z m 582.87,263.74 c -1.4,-20.51 -2.24,-41.18 -4.49,-61.46 -2.27,-20.57 -5.81,-24.23 -19.37,-19.41 -34.78,12.35 -69.96,20.63 -105.18,28.82 -11.93,2.78 -14.38,8.83 -8.34,24.52 9.81,25.54 20.55,50.38 31.5,74.95 21.99,49.34 47.38,94.89 76.76,135.67 6.1,8.46 12.36,22.67 21.98,17.03 9.66,-5.67 6.92,-22.47 8.21,-34.8 1.04,-9.79 1.08,-19.73 1.57,-29.6 1.37,-45.45 0.44,-90.69 -2.64,-135.72 z m -523.47,-241.02 c -15.35,-0.17 -17.88,5.16 -12.01,24.76 15.55,51.91 32.25,103 50.47,153.07 6.16,16.94 14.77,24.32 28.07,22.43 32.65,-4.64 65.37,-0.79 98.01,-6.88 12.84,-2.4 14.03,-4.11 12.04,-22.91 -5.12,-48.42 -10.72,-96.7 -15.77,-145.14 -1.51,-14.51 -7.39,-19.3 -16.99,-19.59 -24.33,-0.73 -48.63,-1.97 -72.95,-3.01 0,0.03 0,0.06 0,0.09 -23.62,-1 -47.22,-2.57 -70.87,-2.82 z m -256.21,193.26 c 14.82,0.35 16.73,-3.66 10.46,-22.18 -17.79,-52.61 -36.25,-104.75 -53.97,-157.42 -5.4,-16.04 -13.58,-22.23 -26.1,-22.56 -45.27,-1.22 -90.48,-3.72 -135.73,-5.2 -17.26,-0.57 -18.96,2.38 -14.95,25.31 8.62,49.36 18.12,98.37 26.42,147.84 3.28,19.54 10.77,26.72 24.78,26.75 27.87,0.05 55.68,2.04 83.52,3.23 -0.01,0.24 -0.03,0.49 -0.04,0.73 28.54,1.22 57.05,2.82 85.61,3.5 z m -230.32,-249.3 c 1.95,13.95 6.86,19.97 16.66,20.34 45.9,1.73 91.78,4.06 137.69,5.5 13.37,0.42 15.3,-4.1 9.08,-20.89 -14.32,-38.7 -28.52,-77.55 -44.06,-115.21 -23.82,-57.74 -46.06,-117.07 -77.06,-168.03 -8.54,-14.04 -17.59,-27.32 -30.09,-34.22 -20.45,-11.31 -30.06,-2.46 -32.09,28.95 -0.57,8.88 -0.89,17.77 -1.33,26.66 -2.13,87.7 9.38,172.3 21.2,256.9 z m 1475.08,429.5 c -8.28,-108.65 -22.21,-215.54 -41.67,-320.67 -0.87,-4.74 -1.89,-9.41 -2.67,-14.18 -5.86,-36.01 -5.83,-36.55 -30.96,-36.7 -43.19,-0.25 -86.4,0.09 -129.6,0.51 -15.87,0.15 -17.84,4.4 -10.21,24.08 45.31,116.79 92.49,231.82 156.84,329.83 15.71,23.92 31.97,47.21 54.84,65.97 4.24,-19.53 4.54,-34.26 3.43,-48.84 z m -469.86,-424.3 c 2.51,33.64 3.27,33.92 26.27,34.92 47.95,2.1 95.96,-1.18 143.97,-4.37 6.27,-0.42 12.54,-0.42 18.8,-0.4 26.34,0.1 26.54,-0.01 14.85,-34.33 -11.32,-33.22 -22.57,-66.53 -34.81,-99.05 -23.2,-61.67 -47.62,-122.27 -78.99,-176.42 -7.88,-13.59 -16.85,-25.29 -26.35,-36.34 -8.78,-10.24 -19.19,-14.37 -30.74,-14.24 -16.9,0.2 -26.08,9.83 -30.84,32.65 -5.04,24.17 -6.11,48.75 -6.13,73.47 -0.01,10.84 -0.07,21.69 -0.1,28.58 -4.11,68.35 -0.68,132.04 4.07,195.53 z m -1570.85,88.39 c 63.6,31.83 129.04,55.67 195.4,74.43 56.15,15.88 112.77,29.25 169.81,39.23 68.73,12.02 137.56,22.98 206.91,28.52 13.67,1.1 15.48,-0.39 12.42,-18.75 -8.9,-53.3 -18.49,-106.33 -27.78,-159.48 -1.93,-11.03 -6.5,-15.39 -14.94,-15.21 -65.46,1.38 -130.75,-3.43 -196.33,0.93 -66.12,4.39 -132.24,8.07 -198.38,10.45 -55.6,2 -111.37,6.51 -166.95,15.38 -2.73,0.44 -5.66,0.78 -7.16,7.18 7.18,10.16 17.66,12.65 27,17.32 z m 646.21,311.85 c 2.14,8.72 6.17,14.64 13.53,15.33 8.64,0.8 13.56,9.33 16.31,19.72 7.75,29.27 13.57,59.47 17.14,90.52 1.26,10.92 0.75,22.65 -9,26.83 -8.45,3.62 -13.19,-4.39 -16.32,-13.29 -5.82,-16.51 -11.04,-33.48 -16.24,-50.44 -20.85,-67.95 -36.96,-138.58 -52.9,-209.25 -3.71,-16.44 -9.5,-23.19 -21.86,-24.18 -29.82,-2.4 -59.82,-4.61 -89.14,-11.29 -28.15,-6.41 -56.86,-4.31 -84.92,-11.66 -38.71,-10.14 -78.15,-15.2 -117.16,-23.52 -37.66,-8.04 -75.15,-16.97 -112.25,-28.14 -45.91,-13.83 -91.31,-30.52 -136.13,-49.71 -28.36,-12.14 -56.34,-25.8 -83.33,-42.81 -7.5,-4.72 -16.22,-11.17 -13.88,-25.4 2.13,-12.98 11.3,-16.98 19.75,-19.65 2.72,-0.85 5.57,-0.64 8.35,-0.97 16.7,-1.96 33.43,-3.41 50.09,-6.02 62.65,-9.85 125.41,-11.5 188.07,-13.39 53.66,-1.63 107.28,-7.23 160.98,-7.37 52.19,-0.13 104.52,-5.36 156.71,-2.82 27.64,1.35 28.15,0.47 22.58,-36.52 -10.4,-69.08 -16.68,-139.16 -19.09,-210.07 -0.76,-22.57 0.14,-45.53 1.83,-68.16 2.11,-28.39 12.5,-40.01 32.28,-40.95 23.95,-1.12 40.3,16.82 54.89,39.78 26.26,41.32 46.22,89.05 65.88,136.84 21.4,52.01 41.6,105.08 61.35,158.45 7.73,20.89 17.12,32.06 35.16,31.59 31.36,-0.82 62.66,2.18 94.01,2.91 15.82,0.37 17.84,-3.06 13.78,-23.86 -10.3,-52.81 -18.29,-106.42 -25.16,-160.48 -7.03,-55.26 -10.35,-111.02 -8.08,-167.63 1.38,-34.14 21.01,-35.95 34.36,-24.97 9.66,7.95 16.4,20.5 22.41,33.53 19.53,42.3 35.96,87.12 51.14,132.96 19.57,59.04 38.03,118.86 54.17,180.03 6.93,26.29 17.94,34.63 37.06,34.64 43.21,0.04 86.35,2.84 129.52,4.46 4.87,0.19 9.76,0.31 14.63,-0.03 6.76,-0.47 10.5,-5.34 9.68,-15.36 -0.48,-5.85 -1.38,-11.61 -2.04,-17.43 -8.38,-73.7 -14.22,-147.92 -15.99,-222.92 -0.35,-14.72 -0.06,-29.77 1.57,-44.39 3.48,-31.26 21.75,-43.12 40.24,-26.52 5.13,4.61 9.53,11.03 13.74,17.32 10.86,16.24 19.77,34.63 27.87,53.88 31.3,74.33 58.45,151.84 82.49,231.61 5.65,18.75 13.34,27.01 27.96,26.79 25.79,-0.4 51.52,2.02 77.31,1.99 26.46,-0.03 52.96,-1.3 79.45,-2.56 14.06,-0.67 15.96,-3.92 15.62,-22.88 -0.05,-2.95 -0.53,-5.85 -0.7,-8.8 -5.28,-88.37 -8.41,-176.89 -2.02,-266.1 1.06,-14.82 1.91,-29.57 5.43,-43.95 8.16,-33.37 22.85,-47.98 47.73,-48.03 24.88,-0.05 43.13,16.85 59.12,41.14 22.03,33.49 40.45,70.72 57.45,109.59 28.92,66.13 52.82,136.21 77.34,205.82 9.68,27.49 11.84,28.36 28.44,8.56 78.61,-93.74 108.9,-212.03 96.66,-351.67 -0.69,-7.8 -1.74,-15.62 -1.62,-23.45 0.16,-10.46 -1.37,-24.49 8.87,-26.64 9.88,-2.06 11.96,10.67 12.85,21.71 1.19,14.63 2.27,29.37 2.33,44.13 0.08,20.88 2.1,41.02 5.33,61.23 13.72,85.96 30.24,170.74 45.89,255.9 6.23,33.86 5.66,33.41 29.75,35.46 41.74,3.55 83.62,-1.16 125.42,-1.4 27.9,-0.16 55.74,-2.81 83.57,-6.14 30.69,-3.66 61.2,3.4 91.95,-2.98 6.78,-1.41 13.16,3.83 12.2,14.9 -1.06,12.31 -7.74,15.51 -15.77,13.38 -6.78,-1.8 -13.58,-4.76 -20.43,-4.64 -39.01,0.63 -78.06,0.81 -117.07,3.51 -36.24,2.5 -72.44,7.38 -108.66,5.5 -16.7,-0.87 -33.43,-1.3 -50.17,-1.13 -17.83,0.19 -20.41,4.46 -15.99,28.02 9.59,51.07 18.04,102.54 25.28,154.5 8.98,64.4 18.5,128.64 21.46,194.68 0.8,17.76 0.66,35.69 -3.2,53.05 -3.78,16.94 -10.86,22.33 -22.55,18.2 -6.74,-2.39 -12.77,-6.87 -18.34,-12.81 -13.69,-14.59 -26.91,-29.8 -38.73,-47.5 -50.1,-75 -91.8,-158.81 -127.8,-248.69 -12.86,-32.1 -25.6,-64.32 -38.57,-96.33 -8.34,-20.59 -11.12,-21.81 -26.24,-9.06 -13.41,11.3 -26.69,22.8 -40.6,32.87 -41.8,30.25 -85.56,52.03 -130.08,71.67 -29.84,13.17 -27.3,5.05 -23.58,47.89 5.26,60.63 7.25,121.46 7.86,182.67 0.23,23.04 -1.77,45.54 -5.47,67.77 -5.75,34.55 -21.26,43.59 -41.96,25.77 -11.27,-9.7 -19.96,-23.46 -28.95,-36.74 -40.56,-59.94 -72.18,-129.2 -99.41,-202.43 -8.36,-22.5 -18.69,-28.76 -34.85,-24.5 -9.69,2.56 -19.39,3.36 -29.17,4.26 -29.23,2.69 -58.31,9.3 -87.69,9.66 -14.88,0.19 -16.66,5.01 -15.35,25.82 2.72,43.08 5.93,86.08 8.9,129.11 1.57,22.69 1.56,45.52 -3.16,67.77 -6.92,32.64 -21.44,40.84 -41.48,24.64 -9.66,-7.81 -17.32,-18.91 -24.95,-30.01 -36.91,-53.71 -68.94,-112.97 -94.45,-178.83 -8.76,-22.63 -18.46,-34.13 -37.48,-27.73 -6.65,2.24 -13.9,0.37 -20.86,0.22 -23,-0.52 -45.99,-0.95 -68.97,-1.74 -9.44,-0.33 -13,5.27 -10.61,18.18 1.05,5.67 2.15,11.33 3.14,17.03 7.89,45.63 16.14,91.12 23.47,136.96 3.98,24.84 6.53,50.44 2.57,76.23 -3.53,23 -12.9,29.11 -28,20.17 -5.82,-3.44 -10.81,-8.53 -15.12,-14.81 -8.57,-12.51 -17.14,-25.03 -25.33,-38.03 -37.16,-58.99 -65.49,-126.58 -90.9,-196.79 -6.77,-18.71 -15.8,-26.24 -30.85,-26.61 -55.73,-1.38 -111.39,-4.44 -167.09,-6.67 -5.41,-0.22 -11.05,-2.41 -18.76,4.64 9.06,47.17 20.49,92.03 31.55,137.06 z"
         style="fill:none;stroke:#fbc657;stroke-width:5;stroke-linecap:butt;stroke-linejoin:miter;stroke-miterlimit:10;stroke-dasharray:none;stroke-opacity:1"
         id="path16" />
      <path
         d="m 5368.36,1973.02 c -32.09,3.79 -63.88,0.92 -95.8,1.06 -40.69,0.17 -42.72,3.22 -37.02,59.98 1.46,14.53 3.25,28.99 4.3,43.6 0.92,12.75 4.86,17.07 13.84,12.96 17.36,-7.95 34.98,-14.7 52.22,-23.17 41.93,-20.59 82.51,-45.84 120.77,-78.61 4.65,-3.99 10.51,-6.29 14.37,-20.28 -25.74,4.98 -49.27,1.69 -72.68,4.46 z m 127.89,-28.56 c 30.9,1.32 58.91,2.61 86.93,3.67 13.18,0.5 26.39,1.49 39.57,0.57 17.12,-1.18 19.75,-6.42 15.57,-29.69 -7.29,-40.63 -15.23,-80.99 -22.57,-121.6 -5.22,-28.88 -8.45,-58.62 -17.23,-87.45 -17.27,91.95 -48.07,172.04 -102.27,234.5 z m -993.66,249.32 c 28.21,81.58 61.65,157.9 107.81,221.41 1.47,2.03 2.94,4.05 4.51,5.92 2.59,3.06 5.21,7.13 9.03,4.95 4.87,-2.79 4.46,-9.52 4.72,-15.3 0.18,-3.92 -0.07,-7.89 -0.33,-11.8 -4.3,-66 -18.59,-128.31 -30.15,-191.63 -1.82,-9.99 -4.72,-18.15 -13.48,-18.46 -26.98,-0.94 -53.94,-2.22 -82.18,-3.43 0.03,6.39 -0.2,7.55 0.07,8.34 z m 270.37,15.97 c 27.34,64.04 57.8,124.67 95.97,176.61 6.67,9.06 13.86,25.06 23.23,19.62 10.04,-5.84 5.39,-24.75 6.53,-37.87 4.86,-55.74 -3.75,-109.82 -6.42,-164.64 -0.52,-10.59 -3.74,-18.26 -13.13,-17.28 -34.09,3.56 -68.13,-0.68 -102.23,4.36 -1.98,0.29 -3.91,1.62 -6.59,2.78 -0.72,7.96 0.86,12.26 2.64,16.42 z m -53.77,-86.17 c -16.14,-41.71 -28.71,-85.85 -41.68,-129.68 -4.86,-16.42 -11.78,-24.42 -24.67,-24.36 -21.53,0.09 -43.01,-1.81 -64.54,-1.83 -14.99,-0.02 -18.3,5.75 -14.53,24.61 10.28,51.52 21,102.85 31.54,154.26 2.46,12.01 6.53,21.68 16.73,21.51 35.26,-0.6 70.53,-1.33 109.73,-2.08 -5.18,-17.73 -8.05,-30.75 -12.58,-42.43 z M 4437.1,1962.23 c -13.95,-0.08 -15.25,2.61 -9.42,19.93 12.99,38.58 26.41,76.86 39.69,115.23 5.43,15.7 11.41,31.03 16.29,47.09 4.02,13.19 10.4,19.44 20.6,19.68 23.65,0.56 47.27,2.11 70.93,2.29 13.37,0.1 14.85,-2.94 11.37,-21.12 -9.92,-51.83 -19.97,-103.61 -30.38,-155.22 -4.72,-23.35 -5.42,-23.66 -23.12,-24.77 -15.27,-0.97 -30.58,-1.37 -45.87,-2.03 -0.01,0.3 -0.03,0.61 -0.04,0.91 -16.68,-0.71 -33.35,-1.9 -50.05,-1.99 z m 549.3,-4.46 c 8.37,0.19 11.63,-5.59 8.65,-17.07 -1.18,-4.57 -2.2,-9.27 -3.64,-13.66 -24.32,-74.09 -49.07,-147.86 -78.36,-218.14 -8.75,-20.97 -18.85,-40.5 -31.25,-57.37 -3.41,-4.65 -7.26,-10.01 -12.69,-6.99 -5.63,3.13 -5.19,11.1 -5.86,17.87 -3.31,33.71 -1.31,67.45 0.59,100.49 3.33,57.72 10.42,114.8 15.83,172.17 1.33,14.19 7.27,19.87 16.93,20.13 14.62,0.39 29.23,1.18 43.84,1.81 0.01,-0.37 0.03,-0.74 0.05,-1.11 15.3,0.65 30.6,1.52 45.91,1.87 z m -87.41,18.83 c -11.83,0.07 -13.61,3.43 -11.83,19.62 5.33,48.45 10.93,96.83 16.31,145.27 1.5,13.47 5.29,20.14 16.47,18.82 41.04,-4.84 82.13,-7.83 123.09,-15.05 12.16,-2.15 14.46,-7.4 9.39,-23.61 -13.07,-41.82 -26.59,-83.34 -39.77,-125.09 -3.45,-10.92 -8.9,-16.3 -17.61,-16.43 -16.02,-0.25 -32.01,-1.25 -48.02,-1.93 0,0.09 -0.01,0.17 -0.01,0.26 -16.01,-0.68 -32,-1.95 -48.02,-1.86 z m 138.1,35.8 c 10.36,32.75 21.09,65.26 31.98,97.65 8.52,25.34 12.41,29.19 32.1,24.99 26.9,-5.73 53.67,-13.25 80.45,-20.37 10.29,-2.74 20.5,-6.38 30.71,-9.83 7.97,-2.7 11.88,-8.87 10.64,-21.41 -2.78,-28.1 -4.95,-56.35 -7.29,-84.56 -1.24,-14.79 -6.19,-23.41 -17.58,-21.61 -51.49,8.14 -102.64,-4.68 -154.13,3.6 -4.04,0.65 -8.37,-0.91 -12.24,4.73 -1.61,9.99 2.67,18.31 5.36,26.81 z m -387.73,-66.56 c 10.85,-1.67 11.92,-4.14 8.06,-19.02 -3.33,-12.81 -7.4,-25.18 -11.12,-37.77 -21.48,-72.77 -42.97,-145.54 -68.68,-215.42 -10.49,-28.52 -22.52,-55.57 -36.8,-80.45 -2.41,-4.21 -5.36,-10.09 -10.29,-6.39 -3.52,2.64 -3.01,8.53 -3.44,13.32 -4.17,45.84 0.49,90.68 4.79,135.36 5.8,60.44 16.5,119.22 27.76,177.73 6.13,31.86 6.44,32.45 29.14,33.74 5.56,0.32 11.14,0.49 19.03,0.83 12.28,1.56 26.93,0.31 41.55,-1.93 z m 582.87,263.74 c -1.4,-20.51 -2.24,-41.18 -4.48,-61.46 -2.28,-20.57 -5.82,-24.23 -19.38,-19.41 -34.78,12.35 -69.96,20.63 -105.18,28.82 -11.93,2.78 -14.37,8.83 -8.34,24.52 9.81,25.54 20.55,50.38 31.5,74.95 21.99,49.34 47.38,94.89 76.77,135.67 6.09,8.46 12.35,22.67 21.97,17.03 9.66,-5.67 6.92,-22.47 8.22,-34.8 1.03,-9.79 1.07,-19.73 1.56,-29.6 1.37,-45.45 0.44,-90.69 -2.64,-135.72 z m -523.47,-241.02 c -15.35,-0.17 -17.88,5.16 -12.01,24.76 15.55,51.91 32.25,103 50.47,153.07 6.16,16.94 14.77,24.32 28.07,22.43 32.65,-4.64 65.37,-0.79 98.01,-6.88 12.84,-2.4 14.04,-4.11 12.05,-22.91 -5.13,-48.42 -10.73,-96.7 -15.77,-145.14 -1.51,-14.51 -7.4,-19.3 -17,-19.59 -24.33,-0.73 -48.63,-1.97 -72.95,-3.01 0,0.03 0,0.06 0,0.09 -23.62,-1 -47.22,-2.57 -70.87,-2.82 z m -256.21,193.26 c 14.82,0.35 16.73,-3.66 10.47,-22.18 -17.8,-52.61 -36.26,-104.75 -53.98,-157.42 -5.4,-16.04 -13.58,-22.23 -26.1,-22.56 -45.26,-1.22 -90.48,-3.72 -135.73,-5.2 -17.25,-0.57 -18.95,2.38 -14.95,25.31 8.62,49.36 18.12,98.37 26.43,147.84 3.28,19.54 10.76,26.72 24.77,26.75 27.87,0.05 55.68,2.04 83.52,3.23 -0.01,0.24 -0.02,0.49 -0.04,0.73 28.54,1.22 57.06,2.82 85.61,3.5 z m -230.32,-249.3 c 1.95,13.95 6.86,19.97 16.66,20.34 45.91,1.73 91.78,4.06 137.7,5.5 13.36,0.42 15.29,-4.1 9.08,-20.89 -14.32,-38.7 -28.52,-77.55 -44.07,-115.21 -23.82,-57.74 -46.06,-117.07 -77.05,-168.03 -8.55,-14.04 -17.6,-27.32 -30.09,-34.22 -20.46,-11.31 -30.07,-2.46 -32.1,28.95 -0.57,8.88 -0.89,17.77 -1.33,26.66 -2.13,87.7 9.39,172.3 21.2,256.9 z m 1475.08,429.5 c -8.28,-108.65 -22.21,-215.54 -41.66,-320.67 -0.88,-4.74 -1.9,-9.41 -2.67,-14.18 -5.87,-36.01 -5.84,-36.55 -30.97,-36.7 -43.19,-0.25 -86.4,0.09 -129.6,0.51 -15.87,0.15 -17.84,4.4 -10.21,24.08 45.31,116.79 92.49,231.82 156.84,329.83 15.71,23.92 31.98,47.21 54.84,65.97 4.24,-19.53 4.54,-34.26 3.43,-48.84 z m -469.86,-424.3 c 2.51,33.64 3.27,33.92 26.27,34.92 47.95,2.1 95.96,-1.18 143.97,-4.37 6.27,-0.42 12.54,-0.42 18.8,-0.4 26.34,0.1 26.54,-0.01 14.85,-34.33 -11.32,-33.22 -22.57,-66.53 -34.8,-99.05 -23.21,-61.67 -47.62,-122.27 -79,-176.42 -7.87,-13.59 -16.85,-25.29 -26.34,-36.34 -8.79,-10.24 -19.19,-14.37 -30.75,-14.24 -16.9,0.2 -26.08,9.83 -30.83,32.65 -5.04,24.17 -6.12,48.75 -6.14,73.47 -0.01,10.84 -0.07,21.69 -0.09,28.58 -4.12,68.35 -0.68,132.04 4.06,195.53 z m -1570.85,88.39 c 63.61,31.83 129.05,55.67 195.4,74.43 56.16,15.88 112.77,29.25 169.82,39.23 68.73,12.02 137.55,22.98 206.91,28.52 13.66,1.1 15.48,-0.39 12.41,-18.75 -8.9,-53.3 -18.49,-106.33 -27.78,-159.48 -1.93,-11.03 -6.5,-15.39 -14.94,-15.21 -65.46,1.38 -130.75,-3.43 -196.32,0.93 -66.12,4.39 -132.25,8.07 -198.39,10.45 -55.59,2 -111.37,6.51 -166.94,15.38 -2.74,0.44 -5.67,0.78 -7.16,7.18 7.17,10.16 17.65,12.65 26.99,17.32 z m 646.21,311.85 c 2.14,8.72 6.17,14.64 13.53,15.33 8.64,0.8 13.56,9.33 16.31,19.72 7.75,29.27 13.57,59.47 17.14,90.52 1.26,10.92 0.75,22.65 -9,26.83 -8.45,3.62 -13.18,-4.39 -16.32,-13.29 -5.81,-16.51 -11.04,-33.48 -16.24,-50.44 -20.85,-67.95 -36.96,-138.58 -52.9,-209.25 -3.71,-16.44 -9.49,-23.19 -21.85,-24.18 -29.83,-2.4 -59.83,-4.61 -89.15,-11.29 -28.15,-6.41 -56.86,-4.31 -84.91,-11.66 -38.72,-10.14 -78.15,-15.2 -117.16,-23.52 -37.67,-8.04 -75.16,-16.97 -112.26,-28.14 -45.91,-13.83 -91.3,-30.52 -136.13,-49.71 -28.36,-12.14 -56.34,-25.8 -83.33,-42.81 -7.49,-4.72 -16.22,-11.17 -13.88,-25.4 2.13,-12.98 11.31,-16.98 19.75,-19.65 2.72,-0.85 5.57,-0.64 8.36,-0.97 16.69,-1.96 33.42,-3.41 50.08,-6.02 62.66,-9.85 125.42,-11.5 188.07,-13.39 53.66,-1.63 107.29,-7.23 160.98,-7.37 52.19,-0.13 104.53,-5.36 156.72,-2.82 27.63,1.35 28.14,0.47 22.57,-36.52 -10.4,-69.08 -16.68,-139.16 -19.08,-210.07 -0.77,-22.57 0.13,-45.53 1.82,-68.16 2.12,-28.39 12.5,-40.01 32.29,-40.95 23.94,-1.12 40.29,16.82 54.88,39.78 26.26,41.32 46.22,89.05 65.88,136.84 21.4,52.01 41.6,105.08 61.35,158.45 7.73,20.89 17.12,32.06 35.16,31.59 31.36,-0.82 62.66,2.18 94.01,2.91 15.82,0.37 17.84,-3.06 13.78,-23.86 -10.3,-52.81 -18.28,-106.42 -25.16,-160.48 -7.03,-55.26 -10.35,-111.02 -8.07,-167.63 1.37,-34.14 21,-35.95 34.35,-24.97 9.66,7.95 16.4,20.5 22.41,33.53 19.53,42.3 35.96,87.12 51.15,132.96 19.56,59.04 38.02,118.86 54.16,180.03 6.94,26.29 17.95,34.63 37.06,34.64 43.22,0.04 86.35,2.84 129.52,4.46 4.87,0.19 9.76,0.31 14.63,-0.03 6.76,-0.47 10.5,-5.34 9.68,-15.36 -0.47,-5.85 -1.38,-11.61 -2.04,-17.43 -8.37,-73.7 -14.22,-147.92 -15.99,-222.92 -0.35,-14.72 -0.05,-29.77 1.57,-44.39 3.49,-31.26 21.75,-43.12 40.24,-26.52 5.13,4.61 9.53,11.03 13.74,17.32 10.87,16.24 19.77,34.63 27.87,53.88 31.31,74.33 58.46,151.84 82.49,231.61 5.65,18.75 13.34,27.01 27.96,26.79 25.79,-0.4 51.52,2.02 77.31,1.99 26.46,-0.03 52.96,-1.3 79.45,-2.56 14.06,-0.67 15.96,-3.92 15.63,-22.88 -0.06,-2.95 -0.53,-5.85 -0.71,-8.8 -5.27,-88.37 -8.41,-176.89 -2.02,-266.1 1.06,-14.82 1.91,-29.57 5.43,-43.95 8.16,-33.37 22.86,-47.98 47.73,-48.03 24.88,-0.05 43.13,16.85 59.12,41.14 22.03,33.49 40.45,70.72 57.45,109.59 28.92,66.13 52.82,136.21 77.34,205.82 9.68,27.49 11.84,28.36 28.44,8.56 78.62,-93.74 108.9,-212.03 96.66,-351.67 -0.68,-7.8 -1.73,-15.62 -1.62,-23.45 0.16,-10.46 -1.37,-24.49 8.87,-26.64 9.88,-2.06 11.96,10.67 12.86,21.71 1.18,14.63 2.27,29.37 2.32,44.13 0.08,20.88 2.1,41.02 5.33,61.23 13.72,85.96 30.24,170.74 45.9,255.9 6.22,33.86 5.66,33.41 29.74,35.46 41.74,3.55 83.62,-1.16 125.42,-1.4 27.91,-0.16 55.74,-2.81 83.57,-6.14 30.69,-3.66 61.2,3.4 91.95,-2.98 6.78,-1.41 13.16,3.83 12.21,14.9 -1.06,12.31 -7.75,15.51 -15.78,13.38 -6.78,-1.8 -13.58,-4.76 -20.42,-4.64 -39.02,0.63 -78.06,0.81 -117.08,3.51 -36.23,2.5 -72.44,7.38 -108.66,5.5 -16.7,-0.87 -33.43,-1.3 -50.16,-1.13 -17.84,0.19 -20.42,4.46 -15.99,28.02 9.58,51.07 18.04,102.54 25.28,154.5 8.97,64.4 18.49,128.64 21.46,194.68 0.79,17.76 0.65,35.69 -3.21,53.05 -3.77,16.94 -10.86,22.33 -22.55,18.2 -6.74,-2.39 -12.77,-6.87 -18.34,-12.81 -13.69,-14.59 -26.91,-29.8 -38.73,-47.5 -50.09,-75 -91.8,-158.81 -127.8,-248.69 -12.86,-32.1 -25.59,-64.32 -38.57,-96.33 -8.34,-20.59 -11.11,-21.81 -26.24,-9.06 -13.41,11.3 -26.69,22.8 -40.6,32.87 -41.8,30.25 -85.56,52.03 -130.08,71.67 -29.84,13.17 -27.29,5.05 -23.58,47.89 5.26,60.63 7.25,121.46 7.86,182.67 0.23,23.04 -1.77,45.54 -5.47,67.77 -5.75,34.55 -21.26,43.59 -41.96,25.77 -11.26,-9.7 -19.96,-23.46 -28.95,-36.74 -40.56,-59.94 -72.18,-129.2 -99.4,-202.43 -8.37,-22.5 -18.7,-28.76 -34.85,-24.5 -9.7,2.56 -19.4,3.36 -29.18,4.26 -29.23,2.69 -58.31,9.3 -87.69,9.66 -14.88,0.19 -16.66,5.01 -15.34,25.82 2.72,43.08 5.92,86.08 8.89,129.11 1.57,22.69 1.56,45.52 -3.16,67.77 -6.91,32.64 -21.44,40.84 -41.48,24.64 -9.66,-7.81 -17.32,-18.91 -24.95,-30.01 -36.91,-53.71 -68.94,-112.97 -94.44,-178.83 -8.77,-22.63 -18.47,-34.13 -37.49,-27.73 -6.65,2.24 -13.89,0.37 -20.86,0.22 -22.99,-0.52 -45.99,-0.95 -68.97,-1.74 -9.44,-0.33 -13,5.27 -10.6,18.18 1.05,5.67 2.14,11.33 3.13,17.03 7.89,45.63 16.14,91.12 23.48,136.96 3.97,24.84 6.52,50.44 2.56,76.23 -3.53,23 -12.9,29.11 -28,20.17 -5.82,-3.44 -10.81,-8.53 -15.11,-14.81 -8.57,-12.51 -17.15,-25.03 -25.34,-38.03 -37.16,-58.99 -65.48,-126.58 -90.89,-196.79 -6.78,-18.71 -15.81,-26.24 -30.86,-26.61 -55.73,-1.38 -111.39,-4.44 -167.09,-6.67 -5.41,-0.22 -11.05,-2.41 -18.76,4.64 9.06,47.17 20.5,92.03 31.55,137.06"
         style="fill:#fbc657;fill-opacity:1;fill-rule:nonzero;stroke:none"
         id="path18" />
      <path
         d="m 5368.36,1973.02 c -32.09,3.79 -63.88,0.92 -95.8,1.06 -40.69,0.17 -42.72,3.22 -37.02,59.98 1.46,14.53 3.25,28.99 4.3,43.6 0.92,12.75 4.86,17.07 13.84,12.96 17.36,-7.95 34.98,-14.7 52.22,-23.17 41.93,-20.59 82.51,-45.84 120.77,-78.61 4.65,-3.99 10.51,-6.29 14.37,-20.28 -25.74,4.98 -49.27,1.69 -72.68,4.46 z m 127.89,-28.56 c 30.9,1.32 58.91,2.61 86.93,3.67 13.18,0.5 26.39,1.49 39.57,0.57 17.12,-1.18 19.75,-6.42 15.57,-29.69 -7.29,-40.63 -15.23,-80.99 -22.57,-121.6 -5.22,-28.88 -8.45,-58.62 -17.23,-87.45 -17.27,91.95 -48.07,172.04 -102.27,234.5 z m -993.66,249.32 c 28.21,81.58 61.65,157.9 107.81,221.41 1.47,2.03 2.94,4.05 4.51,5.92 2.59,3.06 5.21,7.13 9.03,4.95 4.87,-2.79 4.46,-9.52 4.72,-15.3 0.18,-3.92 -0.07,-7.89 -0.33,-11.8 -4.3,-66 -18.59,-128.31 -30.15,-191.63 -1.82,-9.99 -4.72,-18.15 -13.48,-18.46 -26.98,-0.94 -53.94,-2.22 -82.18,-3.43 0.03,6.39 -0.2,7.55 0.07,8.34 z m 270.37,15.97 c 27.34,64.04 57.8,124.67 95.97,176.61 6.67,9.06 13.86,25.06 23.23,19.62 10.04,-5.84 5.39,-24.75 6.53,-37.87 4.86,-55.74 -3.75,-109.82 -6.42,-164.64 -0.52,-10.59 -3.74,-18.26 -13.13,-17.28 -34.09,3.56 -68.13,-0.68 -102.23,4.36 -1.98,0.29 -3.91,1.62 -6.59,2.78 -0.72,7.96 0.86,12.26 2.64,16.42 z m -53.77,-86.17 c -16.14,-41.71 -28.71,-85.85 -41.68,-129.68 -4.86,-16.42 -11.78,-24.42 -24.67,-24.36 -21.53,0.09 -43.01,-1.81 -64.54,-1.83 -14.99,-0.02 -18.3,5.75 -14.53,24.61 10.28,51.52 21,102.85 31.54,154.26 2.46,12.01 6.53,21.68 16.73,21.51 35.26,-0.6 70.53,-1.33 109.73,-2.08 -5.18,-17.73 -8.05,-30.75 -12.58,-42.43 z M 4437.1,1962.23 c -13.95,-0.08 -15.25,2.61 -9.42,19.93 12.99,38.58 26.41,76.86 39.69,115.23 5.43,15.7 11.41,31.03 16.29,47.09 4.02,13.19 10.4,19.44 20.6,19.68 23.65,0.56 47.27,2.11 70.93,2.29 13.37,0.1 14.85,-2.94 11.37,-21.12 -9.92,-51.83 -19.97,-103.61 -30.38,-155.22 -4.72,-23.35 -5.42,-23.66 -23.12,-24.77 -15.27,-0.97 -30.58,-1.37 -45.87,-2.03 -0.01,0.3 -0.03,0.61 -0.04,0.91 -16.68,-0.71 -33.35,-1.9 -50.05,-1.99 z m 549.3,-4.46 c 8.37,0.19 11.63,-5.59 8.65,-17.07 -1.18,-4.57 -2.2,-9.27 -3.64,-13.66 -24.32,-74.09 -49.07,-147.86 -78.36,-218.14 -8.75,-20.97 -18.85,-40.5 -31.25,-57.37 -3.41,-4.65 -7.26,-10.01 -12.69,-6.99 -5.63,3.13 -5.19,11.1 -5.86,17.87 -3.31,33.71 -1.31,67.45 0.59,100.49 3.33,57.72 10.42,114.8 15.83,172.17 1.33,14.19 7.27,19.87 16.93,20.13 14.62,0.39 29.23,1.18 43.84,1.81 0.01,-0.37 0.03,-0.74 0.05,-1.11 15.3,0.65 30.6,1.52 45.91,1.87 z m -87.41,18.83 c -11.83,0.07 -13.61,3.43 -11.83,19.62 5.33,48.45 10.93,96.83 16.31,145.27 1.5,13.47 5.29,20.14 16.47,18.82 41.04,-4.84 82.13,-7.83 123.09,-15.05 12.16,-2.15 14.46,-7.4 9.39,-23.61 -13.07,-41.82 -26.59,-83.34 -39.77,-125.09 -3.45,-10.92 -8.9,-16.3 -17.61,-16.43 -16.02,-0.25 -32.01,-1.25 -48.02,-1.93 0,0.09 -0.01,0.17 -0.01,0.26 -16.01,-0.68 -32,-1.95 -48.02,-1.86 z m 138.1,35.8 c 10.36,32.75 21.09,65.26 31.98,97.65 8.52,25.34 12.41,29.19 32.1,24.99 26.9,-5.73 53.67,-13.25 80.45,-20.37 10.29,-2.74 20.5,-6.38 30.71,-9.83 7.97,-2.7 11.88,-8.87 10.64,-21.41 -2.78,-28.1 -4.95,-56.35 -7.29,-84.56 -1.24,-14.79 -6.19,-23.41 -17.58,-21.61 -51.49,8.14 -102.64,-4.68 -154.13,3.6 -4.04,0.65 -8.37,-0.91 -12.24,4.73 -1.61,9.99 2.67,18.31 5.36,26.81 z m -387.73,-66.56 c 10.85,-1.67 11.92,-4.14 8.06,-19.02 -3.33,-12.81 -7.4,-25.18 -11.12,-37.77 -21.48,-72.77 -42.97,-145.54 -68.68,-215.42 -10.49,-28.52 -22.52,-55.57 -36.8,-80.45 -2.41,-4.21 -5.36,-10.09 -10.29,-6.39 -3.52,2.64 -3.01,8.53 -3.44,13.32 -4.17,45.84 0.49,90.68 4.79,135.36 5.8,60.44 16.5,119.22 27.76,177.73 6.13,31.86 6.44,32.45 29.14,33.74 5.56,0.32 11.14,0.49 19.03,0.83 12.28,1.56 26.93,0.31 41.55,-1.93 z m 582.87,263.74 c -1.4,-20.51 -2.24,-41.18 -4.48,-61.46 -2.28,-20.57 -5.82,-24.23 -19.38,-19.41 -34.78,12.35 -69.96,20.63 -105.18,28.82 -11.93,2.78 -14.37,8.83 -8.34,24.52 9.81,25.54 20.55,50.38 31.5,74.95 21.99,49.34 47.38,94.89 76.77,135.67 6.09,8.46 12.35,22.67 21.97,17.03 9.66,-5.67 6.92,-22.47 8.22,-34.8 1.03,-9.79 1.07,-19.73 1.56,-29.6 1.37,-45.45 0.44,-90.69 -2.64,-135.72 z m -523.47,-241.02 c -15.35,-0.17 -17.88,5.16 -12.01,24.76 15.55,51.91 32.25,103 50.47,153.07 6.16,16.94 14.77,24.32 28.07,22.43 32.65,-4.64 65.37,-0.79 98.01,-6.88 12.84,-2.4 14.04,-4.11 12.05,-22.91 -5.13,-48.42 -10.73,-96.7 -15.77,-145.14 -1.51,-14.51 -7.4,-19.3 -17,-19.59 -24.33,-0.73 -48.63,-1.97 -72.95,-3.01 0,0.03 0,0.06 0,0.09 -23.62,-1 -47.22,-2.57 -70.87,-2.82 z m -256.21,193.26 c 14.82,0.35 16.73,-3.66 10.47,-22.18 -17.8,-52.61 -36.26,-104.75 -53.98,-157.42 -5.4,-16.04 -13.58,-22.23 -26.1,-22.56 -45.26,-1.22 -90.48,-3.72 -135.73,-5.2 -17.25,-0.57 -18.95,2.38 -14.95,25.31 8.62,49.36 18.12,98.37 26.43,147.84 3.28,19.54 10.76,26.72 24.77,26.75 27.87,0.05 55.68,2.04 83.52,3.23 -0.01,0.24 -0.02,0.49 -0.04,0.73 28.54,1.22 57.06,2.82 85.61,3.5 z m -230.32,-249.3 c 1.95,13.95 6.86,19.97 16.66,20.34 45.91,1.73 91.78,4.06 137.7,5.5 13.36,0.42 15.29,-4.1 9.08,-20.89 -14.32,-38.7 -28.52,-77.55 -44.07,-115.21 -23.82,-57.74 -46.06,-117.07 -77.05,-168.03 -8.55,-14.04 -17.6,-27.32 -30.09,-34.22 -20.46,-11.31 -30.07,-2.46 -32.1,28.95 -0.57,8.88 -0.89,17.77 -1.33,26.66 -2.13,87.7 9.39,172.3 21.2,256.9 z m 1475.08,429.5 c -8.28,-108.65 -22.21,-215.54 -41.66,-320.67 -0.88,-4.74 -1.9,-9.41 -2.67,-14.18 -5.87,-36.01 -5.84,-36.55 -30.97,-36.7 -43.19,-0.25 -86.4,0.09 -129.6,0.51 -15.87,0.15 -17.84,4.4 -10.21,24.08 45.31,116.79 92.49,231.82 156.84,329.83 15.71,23.92 31.98,47.21 54.84,65.97 4.24,-19.53 4.54,-34.26 3.43,-48.84 z m -469.86,-424.3 c 2.51,33.64 3.27,33.92 26.27,34.92 47.95,2.1 95.96,-1.18 143.97,-4.37 6.27,-0.42 12.54,-0.42 18.8,-0.4 26.34,0.1 26.54,-0.01 14.85,-34.33 -11.32,-33.22 -22.57,-66.53 -34.8,-99.05 -23.21,-61.67 -47.62,-122.27 -79,-176.42 -7.87,-13.59 -16.85,-25.29 -26.34,-36.34 -8.79,-10.24 -19.19,-14.37 -30.75,-14.24 -16.9,0.2 -26.08,9.83 -30.83,32.65 -5.04,24.17 -6.12,48.75 -6.14,73.47 -0.01,10.84 -0.07,21.69 -0.09,28.58 -4.12,68.35 -0.68,132.04 4.06,195.53 z m -1570.85,88.39 c 63.61,31.83 129.05,55.67 195.4,74.43 56.16,15.88 112.77,29.25 169.82,39.23 68.73,12.02 137.55,22.98 206.91,28.52 13.66,1.1 15.48,-0.39 12.41,-18.75 -8.9,-53.3 -18.49,-106.33 -27.78,-159.48 -1.93,-11.03 -6.5,-15.39 -14.94,-15.21 -65.46,1.38 -130.75,-3.43 -196.32,0.93 -66.12,4.39 -132.25,8.07 -198.39,10.45 -55.59,2 -111.37,6.51 -166.94,15.38 -2.74,0.44 -5.67,0.78 -7.16,7.18 7.17,10.16 17.65,12.65 26.99,17.32 z m 646.21,311.85 c 2.14,8.72 6.17,14.64 13.53,15.33 8.64,0.8 13.56,9.33 16.31,19.72 7.75,29.27 13.57,59.47 17.14,90.52 1.26,10.92 0.75,22.65 -9,26.83 -8.45,3.62 -13.18,-4.39 -16.32,-13.29 -5.81,-16.51 -11.04,-33.48 -16.24,-50.44 -20.85,-67.95 -36.96,-138.58 -52.9,-209.25 -3.71,-16.44 -9.49,-23.19 -21.85,-24.18 -29.83,-2.4 -59.83,-4.61 -89.15,-11.29 -28.15,-6.41 -56.86,-4.31 -84.91,-11.66 -38.72,-10.14 -78.15,-15.2 -117.16,-23.52 -37.67,-8.04 -75.16,-16.97 -112.26,-28.14 -45.91,-13.83 -91.3,-30.52 -136.13,-49.71 -28.36,-12.14 -56.34,-25.8 -83.33,-42.81 -7.49,-4.72 -16.22,-11.17 -13.88,-25.4 2.13,-12.98 11.31,-16.98 19.75,-19.65 2.72,-0.85 5.57,-0.64 8.36,-0.97 16.69,-1.96 33.42,-3.41 50.08,-6.02 62.66,-9.85 125.42,-11.5 188.07,-13.39 53.66,-1.63 107.29,-7.23 160.98,-7.37 52.19,-0.13 104.53,-5.36 156.72,-2.82 27.63,1.35 28.14,0.47 22.57,-36.52 -10.4,-69.08 -16.68,-139.16 -19.08,-210.07 -0.77,-22.57 0.13,-45.53 1.82,-68.16 2.12,-28.39 12.5,-40.01 32.29,-40.95 23.94,-1.12 40.29,16.82 54.88,39.78 26.26,41.32 46.22,89.05 65.88,136.84 21.4,52.01 41.6,105.08 61.35,158.45 7.73,20.89 17.12,32.06 35.16,31.59 31.36,-0.82 62.66,2.18 94.01,2.91 15.82,0.37 17.84,-3.06 13.78,-23.86 -10.3,-52.81 -18.28,-106.42 -25.16,-160.48 -7.03,-55.26 -10.35,-111.02 -8.07,-167.63 1.37,-34.14 21,-35.95 34.35,-24.97 9.66,7.95 16.4,20.5 22.41,33.53 19.53,42.3 35.96,87.12 51.15,132.96 19.56,59.04 38.02,118.86 54.16,180.03 6.94,26.29 17.95,34.63 37.06,34.64 43.22,0.04 86.35,2.84 129.52,4.46 4.87,0.19 9.76,0.31 14.63,-0.03 6.76,-0.47 10.5,-5.34 9.68,-15.36 -0.47,-5.85 -1.38,-11.61 -2.04,-17.43 -8.37,-73.7 -14.22,-147.92 -15.99,-222.92 -0.35,-14.72 -0.05,-29.77 1.57,-44.39 3.49,-31.26 21.75,-43.12 40.24,-26.52 5.13,4.61 9.53,11.03 13.74,17.32 10.87,16.24 19.77,34.63 27.87,53.88 31.31,74.33 58.46,151.84 82.49,231.61 5.65,18.75 13.34,27.01 27.96,26.79 25.79,-0.4 51.52,2.02 77.31,1.99 26.46,-0.03 52.96,-1.3 79.45,-2.56 14.06,-0.67 15.96,-3.92 15.63,-22.88 -0.06,-2.95 -0.53,-5.85 -0.71,-8.8 -5.27,-88.37 -8.41,-176.89 -2.02,-266.1 1.06,-14.82 1.91,-29.57 5.43,-43.95 8.16,-33.37 22.86,-47.98 47.73,-48.03 24.88,-0.05 43.13,16.85 59.12,41.14 22.03,33.49 40.45,70.72 57.45,109.59 28.92,66.13 52.82,136.21 77.34,205.82 9.68,27.49 11.84,28.36 28.44,8.56 78.62,-93.74 108.9,-212.03 96.66,-351.67 -0.68,-7.8 -1.73,-15.62 -1.62,-23.45 0.16,-10.46 -1.37,-24.49 8.87,-26.64 9.88,-2.06 11.96,10.67 12.86,21.71 1.18,14.63 2.27,29.37 2.32,44.13 0.08,20.88 2.1,41.02 5.33,61.23 13.72,85.96 30.24,170.74 45.9,255.9 6.22,33.86 5.66,33.41 29.74,35.46 41.74,3.55 83.62,-1.16 125.42,-1.4 27.91,-0.16 55.74,-2.81 83.57,-6.14 30.69,-3.66 61.2,3.4 91.95,-2.98 6.78,-1.41 13.16,3.83 12.21,14.9 -1.06,12.31 -7.75,15.51 -15.78,13.38 -6.78,-1.8 -13.58,-4.76 -20.42,-4.64 -39.02,0.63 -78.06,0.81 -117.08,3.51 -36.23,2.5 -72.44,7.38 -108.66,5.5 -16.7,-0.87 -33.43,-1.3 -50.16,-1.13 -17.84,0.19 -20.42,4.46 -15.99,28.02 9.58,51.07 18.04,102.54 25.28,154.5 8.97,64.4 18.49,128.64 21.46,194.68 0.79,17.76 0.65,35.69 -3.21,53.05 -3.77,16.94 -10.86,22.33 -22.55,18.2 -6.74,-2.39 -12.77,-6.87 -18.34,-12.81 -13.69,-14.59 -26.91,-29.8 -38.73,-47.5 -50.09,-75 -91.8,-158.81 -127.8,-248.69 -12.86,-32.1 -25.59,-64.32 -38.57,-96.33 -8.34,-20.59 -11.11,-21.81 -26.24,-9.06 -13.41,11.3 -26.69,22.8 -40.6,32.87 -41.8,30.25 -85.56,52.03 -130.08,71.67 -29.84,13.17 -27.29,5.05 -23.58,47.89 5.26,60.63 7.25,121.46 7.86,182.67 0.23,23.04 -1.77,45.54 -5.47,67.77 -5.75,34.55 -21.26,43.59 -41.96,25.77 -11.26,-9.7 -19.96,-23.46 -28.95,-36.74 -40.56,-59.94 -72.18,-129.2 -99.4,-202.43 -8.37,-22.5 -18.7,-28.76 -34.85,-24.5 -9.7,2.56 -19.4,3.36 -29.18,4.26 -29.23,2.69 -58.31,9.3 -87.69,9.66 -14.88,0.19 -16.66,5.01 -15.34,25.82 2.72,43.08 5.92,86.08 8.89,129.11 1.57,22.69 1.56,45.52 -3.16,67.77 -6.91,32.64 -21.44,40.84 -41.48,24.64 -9.66,-7.81 -17.32,-18.91 -24.95,-30.01 -36.91,-53.71 -68.94,-112.97 -94.44,-178.83 -8.77,-22.63 -18.47,-34.13 -37.49,-27.73 -6.65,2.24 -13.89,0.37 -20.86,0.22 -22.99,-0.52 -45.99,-0.95 -68.97,-1.74 -9.44,-0.33 -13,5.27 -10.6,18.18 1.05,5.67 2.14,11.33 3.13,17.03 7.89,45.63 16.14,91.12 23.48,136.96 3.97,24.84 6.52,50.44 2.56,76.23 -3.53,23 -12.9,29.11 -28,20.17 -5.82,-3.44 -10.81,-8.53 -15.11,-14.81 -8.57,-12.51 -17.15,-25.03 -25.34,-38.03 -37.16,-58.99 -65.48,-126.58 -90.89,-196.79 -6.78,-18.71 -15.81,-26.24 -30.86,-26.61 -55.73,-1.38 -111.39,-4.44 -167.09,-6.67 -5.41,-0.22 -11.05,-2.41 -18.76,4.64 9.06,47.17 20.5,92.03 31.55,137.06 z"
         style="fill:none;stroke:#fbc657;stroke-width:5;stroke-linecap:butt;stroke-linejoin:miter;stroke-miterlimit:10;stroke-dasharray:none;stroke-opacity:1"
         id="path20" />
      <path
         d="m 7774.76,1973.02 c -32.09,3.79 -63.88,0.92 -95.8,1.06 -40.68,0.17 -42.72,3.22 -37.02,59.98 1.46,14.53 3.26,28.99 4.31,43.6 0.91,12.75 4.86,17.07 13.83,12.96 17.36,-7.95 34.98,-14.7 52.23,-23.17 41.92,-20.59 82.5,-45.84 120.76,-78.61 4.65,-3.99 10.51,-6.29 14.37,-20.28 -25.74,4.98 -49.26,1.69 -72.68,4.46 z m 127.89,-28.56 c 30.9,1.32 58.91,2.61 86.93,3.67 13.18,0.5 26.39,1.49 39.58,0.57 17.11,-1.18 19.74,-6.42 15.57,-29.69 -7.29,-40.63 -15.24,-80.99 -22.58,-121.6 -5.22,-28.88 -8.45,-58.62 -17.23,-87.45 -17.27,91.95 -48.07,172.04 -102.27,234.5 z m -993.66,249.32 c 28.21,81.58 61.66,157.9 107.81,221.41 1.47,2.03 2.95,4.05 4.52,5.92 2.58,3.06 5.21,7.13 9.02,4.95 4.88,-2.79 4.46,-9.52 4.72,-15.3 0.18,-3.92 -0.07,-7.89 -0.33,-11.8 -4.3,-66 -18.58,-128.31 -30.14,-191.63 -1.83,-9.99 -4.73,-18.15 -13.49,-18.46 -26.98,-0.94 -53.93,-2.22 -82.17,-3.43 0.02,6.39 -0.21,7.55 0.06,8.34 z m 270.37,15.97 c 27.35,64.04 57.8,124.67 95.98,176.61 6.66,9.06 13.86,25.06 23.22,19.62 10.05,-5.84 5.39,-24.75 6.53,-37.87 4.87,-55.74 -3.74,-109.82 -6.42,-164.64 -0.51,-10.59 -3.74,-18.26 -13.13,-17.28 -34.08,3.56 -68.13,-0.68 -102.23,4.36 -1.98,0.29 -3.91,1.62 -6.59,2.78 -0.71,7.96 0.86,12.26 2.64,16.42 z m -53.76,-86.17 c -16.15,-41.71 -28.71,-85.85 -41.69,-129.68 -4.86,-16.42 -11.77,-24.42 -24.66,-24.36 -21.54,0.09 -43.01,-1.81 -64.54,-1.83 -15,-0.02 -18.3,5.75 -14.54,24.61 10.29,51.52 21,102.85 31.54,154.26 2.47,12.01 6.54,21.68 16.73,21.51 35.26,-0.6 70.53,-1.33 109.73,-2.08 -5.18,-17.73 -8.05,-30.75 -12.57,-42.43 z m -282.1,-161.35 c -13.95,-0.08 -15.24,2.61 -9.41,19.93 12.98,38.58 26.4,76.86 39.68,115.23 5.43,15.7 11.41,31.03 16.3,47.09 4.01,13.19 10.39,19.44 20.6,19.68 23.65,0.56 47.26,2.11 70.92,2.29 13.37,0.1 14.85,-2.94 11.37,-21.12 -9.92,-51.83 -19.97,-103.61 -30.38,-155.22 -4.71,-23.35 -5.42,-23.66 -23.11,-24.77 -15.28,-0.97 -30.58,-1.37 -45.87,-2.03 -0.02,0.3 -0.03,0.61 -0.05,0.91 -16.68,-0.71 -33.35,-1.9 -50.05,-1.99 z m 549.31,-4.46 c 8.37,0.19 11.62,-5.59 8.65,-17.07 -1.19,-4.57 -2.2,-9.27 -3.65,-13.66 -24.32,-74.09 -49.06,-147.86 -78.36,-218.14 -8.74,-20.97 -18.84,-40.5 -31.25,-57.37 -3.41,-4.65 -7.25,-10.01 -12.69,-6.99 -5.63,3.13 -5.19,11.1 -5.85,17.87 -3.31,33.71 -1.31,67.45 0.59,100.49 3.32,57.72 10.41,114.8 15.82,172.17 1.34,14.19 7.27,19.87 16.94,20.13 14.62,0.39 29.22,1.18 43.83,1.81 0.02,-0.37 0.04,-0.74 0.05,-1.11 15.31,0.65 30.6,1.52 45.92,1.87 z m -87.42,18.83 c -11.82,0.07 -13.61,3.43 -11.83,19.62 5.33,48.45 10.94,96.83 16.32,145.27 1.49,13.47 5.28,20.14 16.46,18.82 41.04,-4.84 82.13,-7.83 123.09,-15.05 12.16,-2.15 14.46,-7.4 9.4,-23.61 -13.08,-41.82 -26.59,-83.34 -39.78,-125.09 -3.44,-10.92 -8.9,-16.3 -17.6,-16.43 -16.03,-0.25 -32.02,-1.25 -48.03,-1.93 0,0.09 0,0.17 -0.01,0.26 -16,-0.68 -32,-1.95 -48.02,-1.86 z m 138.1,35.8 c 10.37,32.75 21.1,65.26 31.98,97.65 8.52,25.34 12.41,29.19 32.11,24.99 26.9,-5.73 53.66,-13.25 80.44,-20.37 10.3,-2.74 20.5,-6.38 30.71,-9.83 7.98,-2.7 11.89,-8.87 10.65,-21.41 -2.78,-28.1 -4.95,-56.35 -7.3,-84.56 -1.23,-14.79 -6.19,-23.41 -17.58,-21.61 -51.49,8.14 -102.63,-4.68 -154.12,3.6 -4.04,0.65 -8.38,-0.91 -12.25,4.73 -1.6,9.99 2.68,18.31 5.36,26.81 z m -387.73,-66.56 c 10.85,-1.67 11.92,-4.14 8.06,-19.02 -3.33,-12.81 -7.4,-25.18 -11.11,-37.77 -21.49,-72.77 -42.97,-145.54 -68.68,-215.42 -10.49,-28.52 -22.53,-55.57 -36.8,-80.45 -2.42,-4.21 -5.37,-10.09 -10.3,-6.39 -3.52,2.64 -3,8.53 -3.44,13.32 -4.17,45.84 0.5,90.68 4.79,135.36 5.8,60.44 16.5,119.22 27.76,177.73 6.13,31.86 6.45,32.45 29.14,33.74 5.57,0.32 11.14,0.49 19.04,0.83 12.27,1.56 26.92,0.31 41.54,-1.93 z m 582.88,263.74 c -1.4,-20.51 -2.25,-41.18 -4.49,-61.46 -2.27,-20.57 -5.82,-24.23 -19.38,-19.41 -34.78,12.35 -69.96,20.63 -105.17,28.82 -11.94,2.78 -14.38,8.83 -8.35,24.52 9.82,25.54 20.55,50.38 31.51,74.95 21.99,49.34 47.37,94.89 76.76,135.67 6.1,8.46 12.35,22.67 21.97,17.03 9.67,-5.67 6.92,-22.47 8.22,-34.8 1.03,-9.79 1.08,-19.73 1.56,-29.6 1.37,-45.45 0.44,-90.69 -2.63,-135.72 z m -523.47,-241.02 c -15.36,-0.17 -17.88,5.16 -12.01,24.76 15.55,51.91 32.25,103 50.46,153.07 6.17,16.94 14.77,24.32 28.07,22.43 32.66,-4.64 65.37,-0.79 98.02,-6.88 12.84,-2.4 14.03,-4.11 12.04,-22.91 -5.13,-48.42 -10.72,-96.7 -15.77,-145.14 -1.51,-14.51 -7.4,-19.3 -17,-19.59 -24.32,-0.73 -48.63,-1.97 -72.94,-3.01 0,0.03 -0.01,0.06 -0.01,0.09 -23.62,-1 -47.22,-2.57 -70.86,-2.82 z m -256.22,193.26 c 14.83,0.35 16.73,-3.66 10.47,-22.18 -17.8,-52.61 -36.25,-104.75 -53.98,-157.42 -5.39,-16.04 -13.58,-22.23 -26.09,-22.56 -45.27,-1.22 -90.48,-3.72 -135.74,-5.2 -17.25,-0.57 -18.95,2.38 -14.94,25.31 8.62,49.36 18.11,98.37 26.42,147.84 3.28,19.54 10.76,26.72 24.78,26.75 27.86,0.05 55.68,2.04 83.51,3.23 -0.01,0.24 -0.02,0.49 -0.03,0.73 28.53,1.22 57.05,2.82 85.6,3.5 z m -230.31,-249.3 c 1.94,13.95 6.86,19.97 16.66,20.34 45.9,1.73 91.78,4.06 137.69,5.5 13.36,0.42 15.29,-4.1 9.08,-20.89 -14.32,-38.7 -28.52,-77.55 -44.06,-115.21 -23.83,-57.74 -46.07,-117.07 -77.06,-168.03 -8.55,-14.04 -17.59,-27.32 -30.09,-34.22 -20.45,-11.31 -30.07,-2.46 -32.1,28.95 -0.57,8.88 -0.89,17.77 -1.32,26.66 -2.14,87.7 9.38,172.3 21.2,256.9 z m 1475.08,429.5 c -8.29,-108.65 -22.21,-215.54 -41.67,-320.67 -0.88,-4.74 -1.89,-9.41 -2.67,-14.18 -5.87,-36.01 -5.84,-36.55 -30.97,-36.7 -43.18,-0.25 -86.39,0.09 -129.6,0.51 -15.86,0.15 -17.84,4.4 -10.2,24.08 45.3,116.79 92.49,231.82 156.84,329.83 15.7,23.92 31.97,47.21 54.84,65.97 4.23,-19.53 4.54,-34.26 3.43,-48.84 z m -469.87,-424.3 c 2.51,33.64 3.27,33.92 26.28,34.92 47.94,2.1 95.95,-1.18 143.97,-4.37 6.26,-0.42 12.53,-0.42 18.79,-0.4 26.35,0.1 26.55,-0.01 14.86,-34.33 -11.32,-33.22 -22.58,-66.53 -34.81,-99.05 -23.2,-61.67 -47.62,-122.27 -78.99,-176.42 -7.88,-13.59 -16.86,-25.29 -26.35,-36.34 -8.79,-10.24 -19.19,-14.37 -30.74,-14.24 -16.91,0.2 -26.08,9.83 -30.84,32.65 -5.04,24.17 -6.12,48.75 -6.13,73.47 -0.01,10.84 -0.08,21.69 -0.1,28.58 -4.12,68.35 -0.68,132.04 4.06,195.53 z M 6063,2006.11 c 63.61,31.83 129.05,55.67 195.41,74.43 56.15,15.88 112.76,29.25 169.81,39.23 68.73,12.02 137.56,22.98 206.91,28.52 13.66,1.1 15.48,-0.39 12.41,-18.75 -8.89,-53.3 -18.49,-106.33 -27.78,-159.48 -1.93,-11.03 -6.5,-15.39 -14.93,-15.21 -65.47,1.38 -130.75,-3.43 -196.33,0.93 -66.12,4.39 -132.24,8.07 -198.39,10.45 -55.59,2 -111.36,6.51 -166.94,15.38 -2.74,0.44 -5.66,0.78 -7.16,7.18 7.18,10.16 17.65,12.65 26.99,17.32 z m 646.21,311.85 c 2.14,8.72 6.17,14.64 13.54,15.33 8.64,0.8 13.55,9.33 16.3,19.72 7.75,29.27 13.57,59.47 17.15,90.52 1.26,10.92 0.74,22.65 -9,26.83 -8.45,3.62 -13.19,-4.39 -16.32,-13.29 -5.82,-16.51 -11.05,-33.48 -16.25,-50.44 -20.85,-67.95 -36.96,-138.58 -52.9,-209.25 -3.71,-16.44 -9.49,-23.19 -21.85,-24.18 -29.82,-2.4 -59.83,-4.61 -89.14,-11.29 -28.15,-6.41 -56.87,-4.31 -84.92,-11.66 -38.71,-10.14 -78.15,-15.2 -117.16,-23.52 -37.67,-8.04 -75.16,-16.97 -112.26,-28.14 -45.9,-13.83 -91.3,-30.52 -136.13,-49.71 -28.36,-12.14 -56.34,-25.8 -83.33,-42.81 -7.49,-4.72 -16.22,-11.17 -13.88,-25.4 2.14,-12.98 11.31,-16.98 19.76,-19.65 2.71,-0.85 5.56,-0.64 8.35,-0.97 16.7,-1.96 33.42,-3.41 50.09,-6.02 62.65,-9.85 125.41,-11.5 188.06,-13.39 53.66,-1.63 107.29,-7.23 160.99,-7.37 52.18,-0.13 104.52,-5.36 156.71,-2.82 27.64,1.35 28.14,0.47 22.58,-36.52 -10.4,-69.08 -16.69,-139.16 -19.09,-210.07 -0.77,-22.57 0.13,-45.53 1.82,-68.16 2.12,-28.39 12.5,-40.01 32.29,-40.95 23.94,-1.12 40.29,16.82 54.88,39.78 26.27,41.32 46.23,89.05 65.89,136.84 21.39,52.01 41.6,105.08 61.35,158.45 7.73,20.89 17.11,32.06 35.15,31.59 31.37,-0.82 62.66,2.18 94.01,2.91 15.82,0.37 17.84,-3.06 13.78,-23.86 -10.29,-52.81 -18.28,-106.42 -25.16,-160.48 -7.03,-55.26 -10.34,-111.02 -8.07,-167.63 1.37,-34.14 21.01,-35.95 34.36,-24.97 9.66,7.95 16.39,20.5 22.41,33.53 19.52,42.3 35.95,87.12 51.14,132.96 19.56,59.04 38.03,118.86 54.16,180.03 6.94,26.29 17.95,34.63 37.07,34.64 43.21,0.04 86.35,2.84 129.51,4.46 4.87,0.19 9.76,0.31 14.64,-0.03 6.76,-0.47 10.49,-5.34 9.68,-15.36 -0.48,-5.85 -1.39,-11.61 -2.05,-17.43 -8.37,-73.7 -14.22,-147.92 -15.99,-222.92 -0.35,-14.72 -0.05,-29.77 1.58,-44.39 3.48,-31.26 21.75,-43.12 40.23,-26.52 5.13,4.61 9.53,11.03 13.74,17.32 10.87,16.24 19.77,34.63 27.88,53.88 31.3,74.33 58.45,151.84 82.48,231.61 5.65,18.75 13.34,27.01 27.96,26.79 25.79,-0.4 51.53,2.02 77.32,1.99 26.46,-0.03 52.96,-1.3 79.44,-2.56 14.07,-0.67 15.96,-3.92 15.63,-22.88 -0.05,-2.95 -0.53,-5.85 -0.71,-8.8 -5.27,-88.37 -8.41,-176.89 -2.02,-266.1 1.06,-14.82 1.91,-29.57 5.43,-43.95 8.17,-33.37 22.86,-47.98 47.73,-48.03 24.89,-0.05 43.14,16.85 59.13,41.14 22.03,33.49 40.44,70.72 57.44,109.59 28.92,66.13 52.82,136.21 77.34,205.82 9.69,27.49 11.84,28.36 28.44,8.56 78.62,-93.74 108.9,-212.03 96.66,-351.67 -0.68,-7.8 -1.73,-15.62 -1.61,-23.45 0.15,-10.46 -1.38,-24.49 8.87,-26.64 9.88,-2.06 11.96,10.67 12.85,21.71 1.19,14.63 2.27,29.37 2.33,44.13 0.08,20.88 2.1,41.02 5.32,61.23 13.73,85.96 30.24,170.74 45.9,255.9 6.23,33.86 5.66,33.41 29.74,35.46 41.75,3.55 83.63,-1.16 125.42,-1.4 27.91,-0.16 55.74,-2.81 83.58,-6.14 30.68,-3.66 61.2,3.4 91.95,-2.98 6.78,-1.41 13.15,3.83 12.2,14.9 -1.06,12.31 -7.75,15.51 -15.77,13.38 -6.78,-1.8 -13.59,-4.76 -20.43,-4.64 -39.02,0.63 -78.06,0.81 -117.08,3.51 -36.23,2.5 -72.43,7.38 -108.66,5.5 -16.69,-0.87 -33.43,-1.3 -50.16,-1.13 -17.83,0.19 -20.41,4.46 -15.99,28.02 9.58,51.07 18.04,102.54 25.28,154.5 8.97,64.4 18.49,128.64 21.46,194.68 0.8,17.76 0.66,35.69 -3.21,53.05 -3.77,16.94 -10.86,22.33 -22.54,18.2 -6.74,-2.39 -12.78,-6.87 -18.35,-12.81 -13.69,-14.59 -26.91,-29.8 -38.73,-47.5 -50.09,-75 -91.79,-158.81 -127.8,-248.69 -12.86,-32.1 -25.59,-64.32 -38.56,-96.33 -8.34,-20.59 -11.12,-21.81 -26.25,-9.06 -13.41,11.3 -26.69,22.8 -40.6,32.87 -41.79,30.25 -85.56,52.03 -130.07,71.67 -29.85,13.17 -27.3,5.05 -23.58,47.89 5.26,60.63 7.25,121.46 7.86,182.67 0.23,23.04 -1.77,45.54 -5.47,67.77 -5.76,34.55 -21.27,43.59 -41.96,25.77 -11.27,-9.7 -19.96,-23.46 -28.95,-36.74 -40.56,-59.94 -72.19,-129.2 -99.41,-202.43 -8.37,-22.5 -18.69,-28.76 -34.85,-24.5 -9.69,2.56 -19.39,3.36 -29.17,4.26 -29.23,2.69 -58.31,9.3 -87.69,9.66 -14.88,0.19 -16.66,5.01 -15.35,25.82 2.72,43.08 5.92,86.08 8.9,129.11 1.57,22.69 1.55,45.52 -3.16,67.77 -6.92,32.64 -21.45,40.84 -41.48,24.64 -9.66,-7.81 -17.33,-18.91 -24.95,-30.01 -36.92,-53.71 -68.94,-112.97 -94.45,-178.83 -8.76,-22.63 -18.47,-34.13 -37.49,-27.73 -6.65,2.24 -13.89,0.37 -20.86,0.22 -22.99,-0.52 -45.99,-0.95 -68.96,-1.74 -9.45,-0.33 -13,5.27 -10.61,18.18 1.05,5.67 2.15,11.33 3.13,17.03 7.89,45.63 16.15,91.12 23.48,136.96 3.97,24.84 6.52,50.44 2.56,76.23 -3.53,23 -12.9,29.11 -28,20.17 -5.82,-3.44 -10.81,-8.53 -15.11,-14.81 -8.57,-12.51 -17.15,-25.03 -25.34,-38.03 -37.15,-58.99 -65.48,-126.58 -90.89,-196.79 -6.77,-18.71 -15.81,-26.24 -30.85,-26.61 -55.73,-1.38 -111.4,-4.44 -167.09,-6.67 -5.41,-0.22 -11.05,-2.41 -18.77,4.64 9.06,47.17 20.5,92.03 31.55,137.06"
         style="fill:#fbc657;fill-opacity:1;fill-rule:nonzero;stroke:none"
         id="path22" />
      <path
         d="m 7774.76,1973.02 c -32.09,3.79 -63.88,0.92 -95.8,1.06 -40.68,0.17 -42.72,3.22 -37.02,59.98 1.46,14.53 3.26,28.99 4.31,43.6 0.91,12.75 4.86,17.07 13.83,12.96 17.36,-7.95 34.98,-14.7 52.23,-23.17 41.92,-20.59 82.5,-45.84 120.76,-78.61 4.65,-3.99 10.51,-6.29 14.37,-20.28 -25.74,4.98 -49.26,1.69 -72.68,4.46 z m 127.89,-28.56 c 30.9,1.32 58.91,2.61 86.93,3.67 13.18,0.5 26.39,1.49 39.58,0.57 17.11,-1.18 19.74,-6.42 15.57,-29.69 -7.29,-40.63 -15.24,-80.99 -22.58,-121.6 -5.22,-28.88 -8.45,-58.62 -17.23,-87.45 -17.27,91.95 -48.07,172.04 -102.27,234.5 z m -993.66,249.32 c 28.21,81.58 61.66,157.9 107.81,221.41 1.47,2.03 2.95,4.05 4.52,5.92 2.58,3.06 5.21,7.13 9.02,4.95 4.88,-2.79 4.46,-9.52 4.72,-15.3 0.18,-3.92 -0.07,-7.89 -0.33,-11.8 -4.3,-66 -18.58,-128.31 -30.14,-191.63 -1.83,-9.99 -4.73,-18.15 -13.49,-18.46 -26.98,-0.94 -53.93,-2.22 -82.17,-3.43 0.02,6.39 -0.21,7.55 0.06,8.34 z m 270.37,15.97 c 27.35,64.04 57.8,124.67 95.98,176.61 6.66,9.06 13.86,25.06 23.22,19.62 10.05,-5.84 5.39,-24.75 6.53,-37.87 4.87,-55.74 -3.74,-109.82 -6.42,-164.64 -0.51,-10.59 -3.74,-18.26 -13.13,-17.28 -34.08,3.56 -68.13,-0.68 -102.23,4.36 -1.98,0.29 -3.91,1.62 -6.59,2.78 -0.71,7.96 0.86,12.26 2.64,16.42 z m -53.76,-86.17 c -16.15,-41.71 -28.71,-85.85 -41.69,-129.68 -4.86,-16.42 -11.77,-24.42 -24.66,-24.36 -21.54,0.09 -43.01,-1.81 -64.54,-1.83 -15,-0.02 -18.3,5.75 -14.54,24.61 10.29,51.52 21,102.85 31.54,154.26 2.47,12.01 6.54,21.68 16.73,21.51 35.26,-0.6 70.53,-1.33 109.73,-2.08 -5.18,-17.73 -8.05,-30.75 -12.57,-42.43 z m -282.1,-161.35 c -13.95,-0.08 -15.24,2.61 -9.41,19.93 12.98,38.58 26.4,76.86 39.68,115.23 5.43,15.7 11.41,31.03 16.3,47.09 4.01,13.19 10.39,19.44 20.6,19.68 23.65,0.56 47.26,2.11 70.92,2.29 13.37,0.1 14.85,-2.94 11.37,-21.12 -9.92,-51.83 -19.97,-103.61 -30.38,-155.22 -4.71,-23.35 -5.42,-23.66 -23.11,-24.77 -15.28,-0.97 -30.58,-1.37 -45.87,-2.03 -0.02,0.3 -0.03,0.61 -0.05,0.91 -16.68,-0.71 -33.35,-1.9 -50.05,-1.99 z m 549.31,-4.46 c 8.37,0.19 11.62,-5.59 8.65,-17.07 -1.19,-4.57 -2.2,-9.27 -3.65,-13.66 -24.32,-74.09 -49.06,-147.86 -78.36,-218.14 -8.74,-20.97 -18.84,-40.5 -31.25,-57.37 -3.41,-4.65 -7.25,-10.01 -12.69,-6.99 -5.63,3.13 -5.19,11.1 -5.85,17.87 -3.31,33.71 -1.31,67.45 0.59,100.49 3.32,57.72 10.41,114.8 15.82,172.17 1.34,14.19 7.27,19.87 16.94,20.13 14.62,0.39 29.22,1.18 43.83,1.81 0.02,-0.37 0.04,-0.74 0.05,-1.11 15.31,0.65 30.6,1.52 45.92,1.87 z m -87.42,18.83 c -11.82,0.07 -13.61,3.43 -11.83,19.62 5.33,48.45 10.94,96.83 16.32,145.27 1.49,13.47 5.28,20.14 16.46,18.82 41.04,-4.84 82.13,-7.83 123.09,-15.05 12.16,-2.15 14.46,-7.4 9.4,-23.61 -13.08,-41.82 -26.59,-83.34 -39.78,-125.09 -3.44,-10.92 -8.9,-16.3 -17.6,-16.43 -16.03,-0.25 -32.02,-1.25 -48.03,-1.93 0,0.09 0,0.17 -0.01,0.26 -16,-0.68 -32,-1.95 -48.02,-1.86 z m 138.1,35.8 c 10.37,32.75 21.1,65.26 31.98,97.65 8.52,25.34 12.41,29.19 32.11,24.99 26.9,-5.73 53.66,-13.25 80.44,-20.37 10.3,-2.74 20.5,-6.38 30.71,-9.83 7.98,-2.7 11.89,-8.87 10.65,-21.41 -2.78,-28.1 -4.95,-56.35 -7.3,-84.56 -1.23,-14.79 -6.19,-23.41 -17.58,-21.61 -51.49,8.14 -102.63,-4.68 -154.12,3.6 -4.04,0.65 -8.38,-0.91 -12.25,4.73 -1.6,9.99 2.68,18.31 5.36,26.81 z m -387.73,-66.56 c 10.85,-1.67 11.92,-4.14 8.06,-19.02 -3.33,-12.81 -7.4,-25.18 -11.11,-37.77 -21.49,-72.77 -42.97,-145.54 -68.68,-215.42 -10.49,-28.52 -22.53,-55.57 -36.8,-80.45 -2.42,-4.21 -5.37,-10.09 -10.3,-6.39 -3.52,2.64 -3,8.53 -3.44,13.32 -4.17,45.84 0.5,90.68 4.79,135.36 5.8,60.44 16.5,119.22 27.76,177.73 6.13,31.86 6.45,32.45 29.14,33.74 5.57,0.32 11.14,0.49 19.04,0.83 12.27,1.56 26.92,0.31 41.54,-1.93 z m 582.88,263.74 c -1.4,-20.51 -2.25,-41.18 -4.49,-61.46 -2.27,-20.57 -5.82,-24.23 -19.38,-19.41 -34.78,12.35 -69.96,20.63 -105.17,28.82 -11.94,2.78 -14.38,8.83 -8.35,24.52 9.82,25.54 20.55,50.38 31.51,74.95 21.99,49.34 47.37,94.89 76.76,135.67 6.1,8.46 12.35,22.67 21.97,17.03 9.67,-5.67 6.92,-22.47 8.22,-34.8 1.03,-9.79 1.08,-19.73 1.56,-29.6 1.37,-45.45 0.44,-90.69 -2.63,-135.72 z m -523.47,-241.02 c -15.36,-0.17 -17.88,5.16 -12.01,24.76 15.55,51.91 32.25,103 50.46,153.07 6.17,16.94 14.77,24.32 28.07,22.43 32.66,-4.64 65.37,-0.79 98.02,-6.88 12.84,-2.4 14.03,-4.11 12.04,-22.91 -5.13,-48.42 -10.72,-96.7 -15.77,-145.14 -1.51,-14.51 -7.4,-19.3 -17,-19.59 -24.32,-0.73 -48.63,-1.97 -72.94,-3.01 0,0.03 -0.01,0.06 -0.01,0.09 -23.62,-1 -47.22,-2.57 -70.86,-2.82 z m -256.22,193.26 c 14.83,0.35 16.73,-3.66 10.47,-22.18 -17.8,-52.61 -36.25,-104.75 -53.98,-157.42 -5.39,-16.04 -13.58,-22.23 -26.09,-22.56 -45.27,-1.22 -90.48,-3.72 -135.74,-5.2 -17.25,-0.57 -18.95,2.38 -14.94,25.31 8.62,49.36 18.11,98.37 26.42,147.84 3.28,19.54 10.76,26.72 24.78,26.75 27.86,0.05 55.68,2.04 83.51,3.23 -0.01,0.24 -0.02,0.49 -0.03,0.73 28.53,1.22 57.05,2.82 85.6,3.5 z m -230.31,-249.3 c 1.94,13.95 6.86,19.97 16.66,20.34 45.9,1.73 91.78,4.06 137.69,5.5 13.36,0.42 15.29,-4.1 9.08,-20.89 -14.32,-38.7 -28.52,-77.55 -44.06,-115.21 -23.83,-57.74 -46.07,-117.07 -77.06,-168.03 -8.55,-14.04 -17.59,-27.32 -30.09,-34.22 -20.45,-11.31 -30.07,-2.46 -32.1,28.95 -0.57,8.88 -0.89,17.77 -1.32,26.66 -2.14,87.7 9.38,172.3 21.2,256.9 z m 1475.08,429.5 c -8.29,-108.65 -22.21,-215.54 -41.67,-320.67 -0.88,-4.74 -1.89,-9.41 -2.67,-14.18 -5.87,-36.01 -5.84,-36.55 -30.97,-36.7 -43.18,-0.25 -86.39,0.09 -129.6,0.51 -15.86,0.15 -17.84,4.4 -10.2,24.08 45.3,116.79 92.49,231.82 156.84,329.83 15.7,23.92 31.97,47.21 54.84,65.97 4.23,-19.53 4.54,-34.26 3.43,-48.84 z m -469.87,-424.3 c 2.51,33.64 3.27,33.92 26.28,34.92 47.94,2.1 95.95,-1.18 143.97,-4.37 6.26,-0.42 12.53,-0.42 18.79,-0.4 26.35,0.1 26.55,-0.01 14.86,-34.33 -11.32,-33.22 -22.58,-66.53 -34.81,-99.05 -23.2,-61.67 -47.62,-122.27 -78.99,-176.42 -7.88,-13.59 -16.86,-25.29 -26.35,-36.34 -8.79,-10.24 -19.19,-14.37 -30.74,-14.24 -16.91,0.2 -26.08,9.83 -30.84,32.65 -5.04,24.17 -6.12,48.75 -6.13,73.47 -0.01,10.84 -0.08,21.69 -0.1,28.58 -4.12,68.35 -0.68,132.04 4.06,195.53 z M 6063,2006.11 c 63.61,31.83 129.05,55.67 195.41,74.43 56.15,15.88 112.76,29.25 169.81,39.23 68.73,12.02 137.56,22.98 206.91,28.52 13.66,1.1 15.48,-0.39 12.41,-18.75 -8.89,-53.3 -18.49,-106.33 -27.78,-159.48 -1.93,-11.03 -6.5,-15.39 -14.93,-15.21 -65.47,1.38 -130.75,-3.43 -196.33,0.93 -66.12,4.39 -132.24,8.07 -198.39,10.45 -55.59,2 -111.36,6.51 -166.94,15.38 -2.74,0.44 -5.66,0.78 -7.16,7.18 7.18,10.16 17.65,12.65 26.99,17.32 z m 646.21,311.85 c 2.14,8.72 6.17,14.64 13.54,15.33 8.64,0.8 13.55,9.33 16.3,19.72 7.75,29.27 13.57,59.47 17.15,90.52 1.26,10.92 0.74,22.65 -9,26.83 -8.45,3.62 -13.19,-4.39 -16.32,-13.29 -5.82,-16.51 -11.05,-33.48 -16.25,-50.44 -20.85,-67.95 -36.96,-138.58 -52.9,-209.25 -3.71,-16.44 -9.49,-23.19 -21.85,-24.18 -29.82,-2.4 -59.83,-4.61 -89.14,-11.29 -28.15,-6.41 -56.87,-4.31 -84.92,-11.66 -38.71,-10.14 -78.15,-15.2 -117.16,-23.52 -37.67,-8.04 -75.16,-16.97 -112.26,-28.14 -45.9,-13.83 -91.3,-30.52 -136.13,-49.71 -28.36,-12.14 -56.34,-25.8 -83.33,-42.81 -7.49,-4.72 -16.22,-11.17 -13.88,-25.4 2.14,-12.98 11.31,-16.98 19.76,-19.65 2.71,-0.85 5.56,-0.64 8.35,-0.97 16.7,-1.96 33.42,-3.41 50.09,-6.02 62.65,-9.85 125.41,-11.5 188.06,-13.39 53.66,-1.63 107.29,-7.23 160.99,-7.37 52.18,-0.13 104.52,-5.36 156.71,-2.82 27.64,1.35 28.14,0.47 22.58,-36.52 -10.4,-69.08 -16.69,-139.16 -19.09,-210.07 -0.77,-22.57 0.13,-45.53 1.82,-68.16 2.12,-28.39 12.5,-40.01 32.29,-40.95 23.94,-1.12 40.29,16.82 54.88,39.78 26.27,41.32 46.23,89.05 65.89,136.84 21.39,52.01 41.6,105.08 61.35,158.45 7.73,20.89 17.11,32.06 35.15,31.59 31.37,-0.82 62.66,2.18 94.01,2.91 15.82,0.37 17.84,-3.06 13.78,-23.86 -10.29,-52.81 -18.28,-106.42 -25.16,-160.48 -7.03,-55.26 -10.34,-111.02 -8.07,-167.63 1.37,-34.14 21.01,-35.95 34.36,-24.97 9.66,7.95 16.39,20.5 22.41,33.53 19.52,42.3 35.95,87.12 51.14,132.96 19.56,59.04 38.03,118.86 54.16,180.03 6.94,26.29 17.95,34.63 37.07,34.64 43.21,0.04 86.35,2.84 129.51,4.46 4.87,0.19 9.76,0.31 14.64,-0.03 6.76,-0.47 10.49,-5.34 9.68,-15.36 -0.48,-5.85 -1.39,-11.61 -2.05,-17.43 -8.37,-73.7 -14.22,-147.92 -15.99,-222.92 -0.35,-14.72 -0.05,-29.77 1.58,-44.39 3.48,-31.26 21.75,-43.12 40.23,-26.52 5.13,4.61 9.53,11.03 13.74,17.32 10.87,16.24 19.77,34.63 27.88,53.88 31.3,74.33 58.45,151.84 82.48,231.61 5.65,18.75 13.34,27.01 27.96,26.79 25.79,-0.4 51.53,2.02 77.32,1.99 26.46,-0.03 52.96,-1.3 79.44,-2.56 14.07,-0.67 15.96,-3.92 15.63,-22.88 -0.05,-2.95 -0.53,-5.85 -0.71,-8.8 -5.27,-88.37 -8.41,-176.89 -2.02,-266.1 1.06,-14.82 1.91,-29.57 5.43,-43.95 8.17,-33.37 22.86,-47.98 47.73,-48.03 24.89,-0.05 43.14,16.85 59.13,41.14 22.03,33.49 40.44,70.72 57.44,109.59 28.92,66.13 52.82,136.21 77.34,205.82 9.69,27.49 11.84,28.36 28.44,8.56 78.62,-93.74 108.9,-212.03 96.66,-351.67 -0.68,-7.8 -1.73,-15.62 -1.61,-23.45 0.15,-10.46 -1.38,-24.49 8.87,-26.64 9.88,-2.06 11.96,10.67 12.85,21.71 1.19,14.63 2.27,29.37 2.33,44.13 0.08,20.88 2.1,41.02 5.32,61.23 13.73,85.96 30.24,170.74 45.9,255.9 6.23,33.86 5.66,33.41 29.74,35.46 41.75,3.55 83.63,-1.16 125.42,-1.4 27.91,-0.16 55.74,-2.81 83.58,-6.14 30.68,-3.66 61.2,3.4 91.95,-2.98 6.78,-1.41 13.15,3.83 12.2,14.9 -1.06,12.31 -7.75,15.51 -15.77,13.38 -6.78,-1.8 -13.59,-4.76 -20.43,-4.64 -39.02,0.63 -78.06,0.81 -117.08,3.51 -36.23,2.5 -72.43,7.38 -108.66,5.5 -16.69,-0.87 -33.43,-1.3 -50.16,-1.13 -17.83,0.19 -20.41,4.46 -15.99,28.02 9.58,51.07 18.04,102.54 25.28,154.5 8.97,64.4 18.49,128.64 21.46,194.68 0.8,17.76 0.66,35.69 -3.21,53.05 -3.77,16.94 -10.86,22.33 -22.54,18.2 -6.74,-2.39 -12.78,-6.87 -18.35,-12.81 -13.69,-14.59 -26.91,-29.8 -38.73,-47.5 -50.09,-75 -91.79,-158.81 -127.8,-248.69 -12.86,-32.1 -25.59,-64.32 -38.56,-96.33 -8.34,-20.59 -11.12,-21.81 -26.25,-9.06 -13.41,11.3 -26.69,22.8 -40.6,32.87 -41.79,30.25 -85.56,52.03 -130.07,71.67 -29.85,13.17 -27.3,5.05 -23.58,47.89 5.26,60.63 7.25,121.46 7.86,182.67 0.23,23.04 -1.77,45.54 -5.47,67.77 -5.76,34.55 -21.27,43.59 -41.96,25.77 -11.27,-9.7 -19.96,-23.46 -28.95,-36.74 -40.56,-59.94 -72.19,-129.2 -99.41,-202.43 -8.37,-22.5 -18.69,-28.76 -34.85,-24.5 -9.69,2.56 -19.39,3.36 -29.17,4.26 -29.23,2.69 -58.31,9.3 -87.69,9.66 -14.88,0.19 -16.66,5.01 -15.35,25.82 2.72,43.08 5.92,86.08 8.9,129.11 1.57,22.69 1.55,45.52 -3.16,67.77 -6.92,32.64 -21.45,40.84 -41.48,24.64 -9.66,-7.81 -17.33,-18.91 -24.95,-30.01 -36.92,-53.71 -68.94,-112.97 -94.45,-178.83 -8.76,-22.63 -18.47,-34.13 -37.49,-27.73 -6.65,2.24 -13.89,0.37 -20.86,0.22 -22.99,-0.52 -45.99,-0.95 -68.96,-1.74 -9.45,-0.33 -13,5.27 -10.61,18.18 1.05,5.67 2.15,11.33 3.13,17.03 7.89,45.63 16.15,91.12 23.48,136.96 3.97,24.84 6.52,50.44 2.56,76.23 -3.53,23 -12.9,29.11 -28,20.17 -5.82,-3.44 -10.81,-8.53 -15.11,-14.81 -8.57,-12.51 -17.15,-25.03 -25.34,-38.03 -37.15,-58.99 -65.48,-126.58 -90.89,-196.79 -6.77,-18.71 -15.81,-26.24 -30.85,-26.61 -55.73,-1.38 -111.4,-4.44 -167.09,-6.67 -5.41,-0.22 -11.05,-2.41 -18.77,4.64 9.06,47.17 20.5,92.03 31.55,137.06 z"
         style="fill:none;stroke:#fbc657;stroke-width:5;stroke-linecap:butt;stroke-linejoin:miter;stroke-miterlimit:10;stroke-dasharray:none;stroke-opacity:1"
         id="path24" />
      <path
         d="m 10181.2,1973.02 c -32.1,3.79 -63.9,0.92 -95.8,1.06 -40.7,0.17 -42.8,3.22 -37.1,59.98 1.5,14.53 3.3,28.99 4.3,43.6 1,12.75 4.9,17.07 13.9,12.96 17.3,-7.95 35,-14.7 52.2,-23.17 41.9,-20.59 82.5,-45.84 120.8,-78.61 4.6,-3.99 10.5,-6.29 14.3,-20.28 -25.7,4.98 -49.2,1.69 -72.6,4.46 z m 127.9,-28.56 c 30.9,1.32 58.9,2.61 86.9,3.67 13.2,0.5 26.4,1.49 39.6,0.57 17.1,-1.18 19.7,-6.42 15.5,-29.69 -7.3,-40.63 -15.2,-80.99 -22.5,-121.6 -5.3,-28.88 -8.5,-58.62 -17.3,-87.45 -17.2,91.95 -48,172.04 -102.2,234.5 z m -993.7,249.32 c 28.2,81.58 61.65,157.9 107.8,221.41 1.47,2.03 2.95,4.05 4.52,5.92 2.59,3.06 5.21,7.13 9.02,4.95 4.88,-2.79 4.47,-9.52 4.73,-15.3 0.18,-3.92 -0.08,-7.89 -0.33,-11.8 -4.3,-66 -18.59,-128.31 -30.15,-191.63 -1.82,-9.99 -4.73,-18.15 -13.49,-18.46 -26.97,-0.94 -53.93,-2.22 -82.17,-3.43 0.02,6.39 -0.21,7.55 0.07,8.34 z m 270.36,15.97 c 27.35,64.04 57.8,124.67 95.98,176.61 6.66,9.06 13.86,25.06 23.22,19.62 10.05,-5.84 5.39,-24.75 6.54,-37.87 4.86,-55.74 -3.75,-109.82 -6.42,-164.64 -0.52,-10.59 -3.74,-18.26 -13.14,-17.28 -34.08,3.56 -68.12,-0.68 -102.23,4.36 -1.98,0.29 -3.91,1.62 -6.58,2.78 -0.72,7.96 0.86,12.26 2.63,16.42 z M 9532,2123.58 c -16.14,-41.71 -28.71,-85.85 -41.68,-129.68 -4.86,-16.42 -11.78,-24.42 -24.67,-24.36 -21.53,0.09 -43.01,-1.81 -64.54,-1.83 -14.99,-0.02 -18.3,5.75 -14.54,24.61 10.29,51.52 21.01,102.85 31.55,154.26 2.46,12.01 6.53,21.68 16.72,21.51 35.27,-0.6 70.54,-1.33 109.74,-2.08 -5.19,-17.73 -8.06,-30.75 -12.58,-42.43 z m -282.09,-161.35 c -13.95,-0.08 -15.25,2.61 -9.42,19.93 12.98,38.58 26.41,76.86 39.69,115.23 5.43,15.7 11.4,31.03 16.29,47.09 4.01,13.19 10.4,19.44 20.6,19.68 23.65,0.56 47.27,2.11 70.93,2.29 13.37,0.1 14.84,-2.94 11.37,-21.12 -9.92,-51.83 -19.97,-103.61 -30.39,-155.22 -4.71,-23.35 -5.41,-23.66 -23.11,-24.77 -15.27,-0.97 -30.58,-1.37 -45.87,-2.03 -0.02,0.3 -0.03,0.61 -0.05,0.91 -16.68,-0.71 -33.34,-1.9 -50.04,-1.99 z m 549.3,-4.46 c 8.37,0.19 11.63,-5.59 8.65,-17.07 -1.19,-4.57 -2.2,-9.27 -3.64,-13.66 -24.33,-74.09 -49.07,-147.86 -78.37,-218.14 -8.74,-20.97 -18.84,-40.5 -31.24,-57.37 -3.42,-4.65 -7.26,-10.01 -12.69,-6.99 -5.63,3.13 -5.2,11.1 -5.86,17.87 -3.31,33.71 -1.31,67.45 0.59,100.49 3.32,57.72 10.42,114.8 15.82,172.17 1.34,14.19 7.28,19.87 16.94,20.13 14.62,0.39 29.22,1.18 43.83,1.81 0.02,-0.37 0.04,-0.74 0.06,-1.11 15.3,0.65 30.6,1.52 45.91,1.87 z m -87.42,18.83 c -11.82,0.07 -13.61,3.43 -11.83,19.62 5.33,48.45 10.94,96.83 16.32,145.27 1.49,13.47 5.29,20.14 16.47,18.82 41.03,-4.84 82.12,-7.83 123.08,-15.05 12.16,-2.15 14.47,-7.4 9.4,-23.61 -13.08,-41.82 -26.59,-83.34 -39.77,-125.09 -3.45,-10.92 -8.91,-16.3 -17.61,-16.43 -16.02,-0.25 -32.02,-1.25 -48.02,-1.93 -0.01,0.09 -0.01,0.17 -0.02,0.26 -16,-0.68 -31.99,-1.95 -48.02,-1.86 z m 138.11,35.8 c 10.36,32.75 21.09,65.26 31.98,97.65 8.51,25.34 12.41,29.19 32.1,24.99 26.9,-5.73 53.66,-13.25 80.45,-20.37 10.27,-2.74 20.47,-6.38 30.67,-9.83 8,-2.7 11.9,-8.87 10.7,-21.41 -2.8,-28.1 -5,-56.35 -7.3,-84.56 -1.2,-14.79 -6.2,-23.41 -17.6,-21.61 -51.48,8.14 -102.63,-4.68 -154.12,3.6 -4.04,0.65 -8.38,-0.91 -12.24,4.73 -1.61,9.99 2.67,18.31 5.36,26.81 z m -387.73,-66.56 c 10.84,-1.67 11.92,-4.14 8.05,-19.02 -3.32,-12.81 -7.4,-25.18 -11.11,-37.77 -21.48,-72.77 -42.97,-145.54 -68.68,-215.42 -10.49,-28.52 -22.52,-55.57 -36.8,-80.45 -2.42,-4.21 -5.37,-10.09 -10.3,-6.39 -3.52,2.64 -3,8.53 -3.44,13.32 -4.17,45.84 0.5,90.68 4.79,135.36 5.81,60.44 16.5,119.22 27.77,177.73 6.12,31.86 6.44,32.45 29.14,33.74 5.56,0.32 11.13,0.49 19.03,0.83 12.28,1.56 26.93,0.31 41.55,-1.93 z m 582.83,263.74 c -1.4,-20.51 -2.2,-41.18 -4.4,-61.46 -2.3,-20.57 -5.9,-24.23 -19.4,-19.41 -34.8,12.35 -69.98,20.63 -105.2,28.82 -11.94,2.78 -14.38,8.83 -8.35,24.52 9.82,25.54 20.56,50.38 31.51,74.95 21.99,49.34 47.37,94.89 76.74,135.67 6.1,8.46 12.4,22.67 22,17.03 9.7,-5.67 6.9,-22.47 8.2,-34.8 1,-9.79 1.1,-19.73 1.6,-29.6 1.3,-45.45 0.4,-90.69 -2.7,-135.72 z m -523.43,-241.02 c -15.35,-0.17 -17.88,5.16 -12.01,24.76 15.55,51.91 32.25,103 50.47,153.07 6.16,16.94 14.76,24.32 28.07,22.43 32.65,-4.64 65.36,-0.79 98.01,-6.88 12.84,-2.4 14.03,-4.11 12.04,-22.91 -5.12,-48.42 -10.72,-96.7 -15.77,-145.14 -1.51,-14.51 -7.39,-19.3 -16.99,-19.59 -24.33,-0.73 -48.64,-1.97 -72.95,-3.01 0,0.03 0,0.06 0,0.09 -23.62,-1 -47.22,-2.57 -70.87,-2.82 z m -256.21,193.26 c 14.82,0.35 16.72,-3.66 10.46,-22.18 -17.79,-52.61 -36.25,-104.75 -53.97,-157.42 -5.4,-16.04 -13.59,-22.23 -26.1,-22.56 -45.27,-1.22 -90.48,-3.72 -135.73,-5.2 -17.26,-0.57 -18.96,2.38 -14.95,25.31 8.62,49.36 18.12,98.37 26.42,147.84 3.28,19.54 10.77,26.72 24.78,26.75 27.87,0.05 55.68,2.04 83.52,3.23 -0.02,0.24 -0.03,0.49 -0.04,0.73 28.53,1.22 57.05,2.82 85.61,3.5 z m -230.32,-249.3 c 1.95,13.95 6.86,19.97 16.66,20.34 45.9,1.73 91.78,4.06 137.69,5.5 13.37,0.42 15.3,-4.1 9.08,-20.89 -14.32,-38.7 -28.52,-77.55 -44.06,-115.21 -23.82,-57.74 -46.06,-117.07 -77.06,-168.03 -8.54,-14.04 -17.59,-27.32 -30.09,-34.22 -20.45,-11.31 -30.06,-2.46 -32.09,28.95 -0.58,8.88 -0.9,17.77 -1.33,26.66 -2.13,87.7 9.38,172.3 21.2,256.9 z m 1475.06,429.5 c -8.3,-108.65 -22.2,-215.54 -41.6,-320.67 -0.9,-4.74 -1.9,-9.41 -2.7,-14.18 -5.9,-36.01 -5.9,-36.55 -31,-36.7 -43.2,-0.25 -86.4,0.09 -129.6,0.51 -15.9,0.15 -17.8,4.4 -10.2,24.08 45.3,116.79 92.5,231.82 156.8,329.83 15.8,23.92 32,47.21 54.9,65.97 4.2,-19.53 4.5,-34.26 3.4,-48.84 z m -469.8,-424.3 c 2.5,33.64 3.2,33.92 26.2,34.92 48,2.1 96,-1.18 144,-4.37 6.3,-0.42 12.5,-0.42 18.8,-0.4 26.3,0.1 26.5,-0.01 14.8,-34.33 -11.3,-33.22 -22.5,-66.53 -34.8,-99.05 -23.2,-61.67 -47.6,-122.27 -79,-176.42 -7.8,-13.59 -16.8,-25.29 -26.3,-36.34 -8.8,-10.24 -19.2,-14.37 -30.7,-14.24 -16.9,0.2 -26.1,9.83 -30.9,32.65 -5,24.17 -6.1,48.75 -6.1,73.47 0,10.84 -0.1,21.69 -0.1,28.58 -4.1,68.35 -0.7,132.04 4.1,195.53 z m -1570.9,88.39 c 63.61,31.83 129.05,55.67 195.41,74.43 56.15,15.88 112.76,29.25 169.81,39.23 68.73,12.02 137.56,22.98 206.91,28.52 13.66,1.1 15.48,-0.39 12.42,-18.75 -8.9,-53.3 -18.49,-106.33 -27.79,-159.48 -1.93,-11.03 -6.49,-15.39 -14.93,-15.21 -65.47,1.38 -130.75,-3.43 -196.33,0.93 -66.12,4.39 -132.24,8.07 -198.38,10.45 -55.6,2 -111.37,6.51 -166.95,15.38 -2.74,0.44 -5.66,0.78 -7.16,7.18 7.18,10.16 17.66,12.65 26.99,17.32 z m 646.22,311.85 c 2.14,8.72 6.17,14.64 13.53,15.33 8.64,0.8 13.55,9.33 16.31,19.72 7.75,29.27 13.57,59.47 17.14,90.52 1.26,10.92 0.74,22.65 -9,26.83 -8.45,3.62 -13.19,-4.39 -16.32,-13.29 -5.82,-16.51 -11.04,-33.48 -16.25,-50.44 -20.84,-67.95 -36.96,-138.58 -52.9,-209.25 -3.7,-16.44 -9.49,-23.19 -21.85,-24.18 -29.82,-2.4 -59.83,-4.61 -89.14,-11.29 -28.15,-6.41 -56.86,-4.31 -84.92,-11.66 -38.71,-10.14 -78.15,-15.2 -117.16,-23.52 -37.66,-8.04 -75.15,-16.97 -112.26,-28.14 -45.9,-13.83 -91.3,-30.52 -136.13,-49.71 -28.35,-12.14 -56.33,-25.8 -83.32,-42.81 -7.5,-4.72 -16.22,-11.17 -13.88,-25.4 2.13,-12.98 11.3,-16.98 19.75,-19.65 2.71,-0.85 5.57,-0.64 8.35,-0.97 16.7,-1.96 33.43,-3.41 50.09,-6.02 62.65,-9.85 125.41,-11.5 188.07,-13.39 53.65,-1.63 107.28,-7.23 160.98,-7.37 52.19,-0.13 104.52,-5.36 156.71,-2.82 27.64,1.35 28.15,0.47 22.58,-36.52 -10.4,-69.08 -16.68,-139.16 -19.09,-210.07 -0.76,-22.57 0.14,-45.53 1.83,-68.16 2.11,-28.39 12.5,-40.01 32.28,-40.95 23.94,-1.12 40.29,16.82 54.89,39.78 26.26,41.32 46.22,89.05 65.88,136.84 21.39,52.01 41.6,105.08 61.35,158.45 7.73,20.89 17.12,32.06 35.16,31.59 31.36,-0.82 62.66,2.18 94.01,2.91 15.82,0.37 17.83,-3.06 13.78,-23.86 -10.3,-52.81 -18.29,-106.42 -25.16,-160.48 -7.03,-55.26 -10.35,-111.02 -8.08,-167.63 1.37,-34.14 21.01,-35.95 34.36,-24.97 9.66,7.95 16.39,20.5 22.41,33.53 19.52,42.3 35.95,87.12 51.14,132.96 19.56,59.04 38.03,118.86 54.17,180.03 6.93,26.29 17.94,34.63 37.06,34.64 43.21,0.04 86.35,2.84 129.52,4.46 4.87,0.19 9.75,0.31 14.63,-0.03 6.76,-0.47 10.5,-5.34 9.68,-15.36 -0.48,-5.85 -1.38,-11.61 -2.04,-17.43 -8.38,-73.7 -14.22,-147.92 -15.99,-222.92 -0.35,-14.72 -0.06,-29.77 1.57,-44.39 3.48,-31.26 21.75,-43.12 40.24,-26.52 5.13,4.61 9.53,11.03 13.74,17.32 10.86,16.24 19.77,34.63 27.87,53.88 31.3,74.33 58.45,151.84 82.49,231.61 5.65,18.75 13.33,27.01 27.95,26.79 25.8,-0.4 51.53,2.02 77.32,1.99 26.46,-0.03 52.96,-1.3 79.43,-2.56 14.1,-0.67 16,-3.92 15.6,-22.88 0,-2.95 -0.5,-5.85 -0.7,-8.8 -5.2,-88.37 -8.4,-176.89 -2,-266.1 1.1,-14.82 1.9,-29.57 5.4,-43.95 8.2,-33.37 22.9,-47.98 47.8,-48.03 24.9,-0.05 43.1,16.85 59.1,41.14 22,33.49 40.4,70.72 57.4,109.59 29,66.13 52.9,136.21 77.4,205.82 9.7,27.49 11.8,28.36 28.4,8.56 78.6,-93.74 108.9,-212.03 96.7,-351.67 -0.7,-7.8 -1.7,-15.62 -1.6,-23.45 0.1,-10.46 -1.4,-24.49 8.8,-26.64 9.9,-2.06 12,10.67 12.9,21.71 1.2,14.63 2.3,29.37 2.3,44.13 0.1,20.88 2.1,41.02 5.3,61.23 13.8,85.96 30.3,170.74 45.9,255.9 6.3,33.86 5.7,33.41 29.8,35.46 41.7,3.55 83.6,-1.16 125.4,-1.4 27.9,-0.16 55.7,-2.81 83.6,-6.14 30.7,-3.66 61.2,3.4 91.9,-2.98 6.8,-1.41 13.2,3.83 12.2,14.9 -1,12.31 -7.7,15.51 -15.7,13.38 -6.8,-1.8 -13.6,-4.76 -20.5,-4.64 -39,0.63 -78,0.81 -117,3.51 -36.3,2.5 -72.5,7.38 -108.7,5.5 -16.7,-0.87 -33.4,-1.3 -50.2,-1.13 -17.8,0.19 -20.4,4.46 -16,28.02 9.6,51.07 18.1,102.54 25.3,154.5 9,64.4 18.5,128.64 21.5,194.68 0.8,17.76 0.6,35.69 -3.2,53.05 -3.8,16.94 -10.9,22.33 -22.6,18.2 -6.7,-2.39 -12.7,-6.87 -18.3,-12.81 -13.7,-14.59 -26.9,-29.8 -38.7,-47.5 -50.1,-75 -91.8,-158.81 -127.8,-248.69 -12.9,-32.1 -25.6,-64.32 -38.6,-96.33 -8.4,-20.59 -11.1,-21.81 -26.3,-9.06 -13.4,11.3 -26.6,22.8 -40.6,32.87 -41.7,30.25 -85.5,52.03 -130,71.67 -29.9,13.17 -27.3,5.05 -23.6,47.89 5.3,60.63 7.2,121.46 7.8,182.67 0.3,23.04 -1.7,45.54 -5.4,67.77 -5.8,34.55 -21.3,43.59 -42,25.77 -11.2,-9.7 -19.94,-23.46 -28.93,-36.74 -40.56,-59.94 -72.18,-129.2 -99.41,-202.43 -8.36,-22.5 -18.69,-28.76 -34.85,-24.5 -9.69,2.56 -19.39,3.36 -29.17,4.26 -29.23,2.69 -58.31,9.3 -87.69,9.66 -14.88,0.19 -16.66,5.01 -15.35,25.82 2.72,43.08 5.92,86.08 8.9,129.11 1.57,22.69 1.55,45.52 -3.16,67.77 -6.92,32.64 -21.44,40.84 -41.48,24.64 -9.66,-7.81 -17.32,-18.91 -24.95,-30.01 -36.91,-53.71 -68.94,-112.97 -94.45,-178.83 -8.76,-22.63 -18.46,-34.13 -37.48,-27.73 -6.65,2.24 -13.9,0.37 -20.86,0.22 -23,-0.52 -45.99,-0.95 -68.97,-1.74 -9.44,-0.33 -13,5.27 -10.61,18.18 1.05,5.67 2.15,11.33 3.14,17.03 7.89,45.63 16.14,91.12 23.47,136.96 3.98,24.84 6.53,50.44 2.57,76.23 -3.53,23 -12.9,29.11 -28.01,20.17 -5.81,-3.44 -10.8,-8.53 -15.11,-14.81 -8.57,-12.51 -17.14,-25.03 -25.33,-38.03 -37.16,-58.99 -65.49,-126.58 -90.9,-196.79 -6.77,-18.71 -15.81,-26.24 -30.85,-26.61 -55.73,-1.38 -111.39,-4.44 -167.09,-6.67 -5.41,-0.22 -11.05,-2.41 -18.77,4.64 9.06,47.17 20.5,92.03 31.56,137.06"
         style="fill:#fbc657;fill-opacity:1;fill-rule:nonzero;stroke:none"
         id="path26" />
      <path
         d="m 10181.2,1973.02 c -32.1,3.79 -63.9,0.92 -95.8,1.06 -40.7,0.17 -42.8,3.22 -37.1,59.98 1.5,14.53 3.3,28.99 4.3,43.6 1,12.75 4.9,17.07 13.9,12.96 17.3,-7.95 35,-14.7 52.2,-23.17 41.9,-20.59 82.5,-45.84 120.8,-78.61 4.6,-3.99 10.5,-6.29 14.3,-20.28 -25.7,4.98 -49.2,1.69 -72.6,4.46 z m 127.9,-28.56 c 30.9,1.32 58.9,2.61 86.9,3.67 13.2,0.5 26.4,1.49 39.6,0.57 17.1,-1.18 19.7,-6.42 15.5,-29.69 -7.3,-40.63 -15.2,-80.99 -22.5,-121.6 -5.3,-28.88 -8.5,-58.62 -17.3,-87.45 -17.2,91.95 -48,172.04 -102.2,234.5 z m -993.7,249.32 c 28.2,81.58 61.65,157.9 107.8,221.41 1.47,2.03 2.95,4.05 4.52,5.92 2.59,3.06 5.21,7.13 9.02,4.95 4.88,-2.79 4.47,-9.52 4.73,-15.3 0.18,-3.92 -0.08,-7.89 -0.33,-11.8 -4.3,-66 -18.59,-128.31 -30.15,-191.63 -1.82,-9.99 -4.73,-18.15 -13.49,-18.46 -26.97,-0.94 -53.93,-2.22 -82.17,-3.43 0.02,6.39 -0.21,7.55 0.07,8.34 z m 270.36,15.97 c 27.35,64.04 57.8,124.67 95.98,176.61 6.66,9.06 13.86,25.06 23.22,19.62 10.05,-5.84 5.39,-24.75 6.54,-37.87 4.86,-55.74 -3.75,-109.82 -6.42,-164.64 -0.52,-10.59 -3.74,-18.26 -13.14,-17.28 -34.08,3.56 -68.12,-0.68 -102.23,4.36 -1.98,0.29 -3.91,1.62 -6.58,2.78 -0.72,7.96 0.86,12.26 2.63,16.42 z M 9532,2123.58 c -16.14,-41.71 -28.71,-85.85 -41.68,-129.68 -4.86,-16.42 -11.78,-24.42 -24.67,-24.36 -21.53,0.09 -43.01,-1.81 -64.54,-1.83 -14.99,-0.02 -18.3,5.75 -14.54,24.61 10.29,51.52 21.01,102.85 31.55,154.26 2.46,12.01 6.53,21.68 16.72,21.51 35.27,-0.6 70.54,-1.33 109.74,-2.08 -5.19,-17.73 -8.06,-30.75 -12.58,-42.43 z m -282.09,-161.35 c -13.95,-0.08 -15.25,2.61 -9.42,19.93 12.98,38.58 26.41,76.86 39.69,115.23 5.43,15.7 11.4,31.03 16.29,47.09 4.01,13.19 10.4,19.44 20.6,19.68 23.65,0.56 47.27,2.11 70.93,2.29 13.37,0.1 14.84,-2.94 11.37,-21.12 -9.92,-51.83 -19.97,-103.61 -30.39,-155.22 -4.71,-23.35 -5.41,-23.66 -23.11,-24.77 -15.27,-0.97 -30.58,-1.37 -45.87,-2.03 -0.02,0.3 -0.03,0.61 -0.05,0.91 -16.68,-0.71 -33.34,-1.9 -50.04,-1.99 z m 549.3,-4.46 c 8.37,0.19 11.63,-5.59 8.65,-17.07 -1.19,-4.57 -2.2,-9.27 -3.64,-13.66 -24.33,-74.09 -49.07,-147.86 -78.37,-218.14 -8.74,-20.97 -18.84,-40.5 -31.24,-57.37 -3.42,-4.65 -7.26,-10.01 -12.69,-6.99 -5.63,3.13 -5.2,11.1 -5.86,17.87 -3.31,33.71 -1.31,67.45 0.59,100.49 3.32,57.72 10.42,114.8 15.82,172.17 1.34,14.19 7.28,19.87 16.94,20.13 14.62,0.39 29.22,1.18 43.83,1.81 0.02,-0.37 0.04,-0.74 0.06,-1.11 15.3,0.65 30.6,1.52 45.91,1.87 z m -87.42,18.83 c -11.82,0.07 -13.61,3.43 -11.83,19.62 5.33,48.45 10.94,96.83 16.32,145.27 1.49,13.47 5.29,20.14 16.47,18.82 41.03,-4.84 82.12,-7.83 123.08,-15.05 12.16,-2.15 14.47,-7.4 9.4,-23.61 -13.08,-41.82 -26.59,-83.34 -39.77,-125.09 -3.45,-10.92 -8.91,-16.3 -17.61,-16.43 -16.02,-0.25 -32.02,-1.25 -48.02,-1.93 -0.01,0.09 -0.01,0.17 -0.02,0.26 -16,-0.68 -31.99,-1.95 -48.02,-1.86 z m 138.11,35.8 c 10.36,32.75 21.09,65.26 31.98,97.65 8.51,25.34 12.41,29.19 32.1,24.99 26.9,-5.73 53.66,-13.25 80.45,-20.37 10.27,-2.74 20.47,-6.38 30.67,-9.83 8,-2.7 11.9,-8.87 10.7,-21.41 -2.8,-28.1 -5,-56.35 -7.3,-84.56 -1.2,-14.79 -6.2,-23.41 -17.6,-21.61 -51.48,8.14 -102.63,-4.68 -154.12,3.6 -4.04,0.65 -8.38,-0.91 -12.24,4.73 -1.61,9.99 2.67,18.31 5.36,26.81 z m -387.73,-66.56 c 10.84,-1.67 11.92,-4.14 8.05,-19.02 -3.32,-12.81 -7.4,-25.18 -11.11,-37.77 -21.48,-72.77 -42.97,-145.54 -68.68,-215.42 -10.49,-28.52 -22.52,-55.57 -36.8,-80.45 -2.42,-4.21 -5.37,-10.09 -10.3,-6.39 -3.52,2.64 -3,8.53 -3.44,13.32 -4.17,45.84 0.5,90.68 4.79,135.36 5.81,60.44 16.5,119.22 27.77,177.73 6.12,31.86 6.44,32.45 29.14,33.74 5.56,0.32 11.13,0.49 19.03,0.83 12.28,1.56 26.93,0.31 41.55,-1.93 z m 582.83,263.74 c -1.4,-20.51 -2.2,-41.18 -4.4,-61.46 -2.3,-20.57 -5.9,-24.23 -19.4,-19.41 -34.8,12.35 -69.98,20.63 -105.2,28.82 -11.94,2.78 -14.38,8.83 -8.35,24.52 9.82,25.54 20.56,50.38 31.51,74.95 21.99,49.34 47.37,94.89 76.74,135.67 6.1,8.46 12.4,22.67 22,17.03 9.7,-5.67 6.9,-22.47 8.2,-34.8 1,-9.79 1.1,-19.73 1.6,-29.6 1.3,-45.45 0.4,-90.69 -2.7,-135.72 z m -523.43,-241.02 c -15.35,-0.17 -17.88,5.16 -12.01,24.76 15.55,51.91 32.25,103 50.47,153.07 6.16,16.94 14.76,24.32 28.07,22.43 32.65,-4.64 65.36,-0.79 98.01,-6.88 12.84,-2.4 14.03,-4.11 12.04,-22.91 -5.12,-48.42 -10.72,-96.7 -15.77,-145.14 -1.51,-14.51 -7.39,-19.3 -16.99,-19.59 -24.33,-0.73 -48.64,-1.97 -72.95,-3.01 0,0.03 0,0.06 0,0.09 -23.62,-1 -47.22,-2.57 -70.87,-2.82 z m -256.21,193.26 c 14.82,0.35 16.72,-3.66 10.46,-22.18 -17.79,-52.61 -36.25,-104.75 -53.97,-157.42 -5.4,-16.04 -13.59,-22.23 -26.1,-22.56 -45.27,-1.22 -90.48,-3.72 -135.73,-5.2 -17.26,-0.57 -18.96,2.38 -14.95,25.31 8.62,49.36 18.12,98.37 26.42,147.84 3.28,19.54 10.77,26.72 24.78,26.75 27.87,0.05 55.68,2.04 83.52,3.23 -0.02,0.24 -0.03,0.49 -0.04,0.73 28.53,1.22 57.05,2.82 85.61,3.5 z m -230.32,-249.3 c 1.95,13.95 6.86,19.97 16.66,20.34 45.9,1.73 91.78,4.06 137.69,5.5 13.37,0.42 15.3,-4.1 9.08,-20.89 -14.32,-38.7 -28.52,-77.55 -44.06,-115.21 -23.82,-57.74 -46.06,-117.07 -77.06,-168.03 -8.54,-14.04 -17.59,-27.32 -30.09,-34.22 -20.45,-11.31 -30.06,-2.46 -32.09,28.95 -0.58,8.88 -0.9,17.77 -1.33,26.66 -2.13,87.7 9.38,172.3 21.2,256.9 z m 1475.06,429.5 c -8.3,-108.65 -22.2,-215.54 -41.6,-320.67 -0.9,-4.74 -1.9,-9.41 -2.7,-14.18 -5.9,-36.01 -5.9,-36.55 -31,-36.7 -43.2,-0.25 -86.4,0.09 -129.6,0.51 -15.9,0.15 -17.8,4.4 -10.2,24.08 45.3,116.79 92.5,231.82 156.8,329.83 15.8,23.92 32,47.21 54.9,65.97 4.2,-19.53 4.5,-34.26 3.4,-48.84 z m -469.8,-424.3 c 2.5,33.64 3.2,33.92 26.2,34.92 48,2.1 96,-1.18 144,-4.37 6.3,-0.42 12.5,-0.42 18.8,-0.4 26.3,0.1 26.5,-0.01 14.8,-34.33 -11.3,-33.22 -22.5,-66.53 -34.8,-99.05 -23.2,-61.67 -47.6,-122.27 -79,-176.42 -7.8,-13.59 -16.8,-25.29 -26.3,-36.34 -8.8,-10.24 -19.2,-14.37 -30.7,-14.24 -16.9,0.2 -26.1,9.83 -30.9,32.65 -5,24.17 -6.1,48.75 -6.1,73.47 0,10.84 -0.1,21.69 -0.1,28.58 -4.1,68.35 -0.7,132.04 4.1,195.53 z m -1570.9,88.39 c 63.61,31.83 129.05,55.67 195.41,74.43 56.15,15.88 112.76,29.25 169.81,39.23 68.73,12.02 137.56,22.98 206.91,28.52 13.66,1.1 15.48,-0.39 12.42,-18.75 -8.9,-53.3 -18.49,-106.33 -27.79,-159.48 -1.93,-11.03 -6.49,-15.39 -14.93,-15.21 -65.47,1.38 -130.75,-3.43 -196.33,0.93 -66.12,4.39 -132.24,8.07 -198.38,10.45 -55.6,2 -111.37,6.51 -166.95,15.38 -2.74,0.44 -5.66,0.78 -7.16,7.18 7.18,10.16 17.66,12.65 26.99,17.32 z m 646.22,311.85 c 2.14,8.72 6.17,14.64 13.53,15.33 8.64,0.8 13.55,9.33 16.31,19.72 7.75,29.27 13.57,59.47 17.14,90.52 1.26,10.92 0.74,22.65 -9,26.83 -8.45,3.62 -13.19,-4.39 -16.32,-13.29 -5.82,-16.51 -11.04,-33.48 -16.25,-50.44 -20.84,-67.95 -36.96,-138.58 -52.9,-209.25 -3.7,-16.44 -9.49,-23.19 -21.85,-24.18 -29.82,-2.4 -59.83,-4.61 -89.14,-11.29 -28.15,-6.41 -56.86,-4.31 -84.92,-11.66 -38.71,-10.14 -78.15,-15.2 -117.16,-23.52 -37.66,-8.04 -75.15,-16.97 -112.26,-28.14 -45.9,-13.83 -91.3,-30.52 -136.13,-49.71 -28.35,-12.14 -56.33,-25.8 -83.32,-42.81 -7.5,-4.72 -16.22,-11.17 -13.88,-25.4 2.13,-12.98 11.3,-16.98 19.75,-19.65 2.71,-0.85 5.57,-0.64 8.35,-0.97 16.7,-1.96 33.43,-3.41 50.09,-6.02 62.65,-9.85 125.41,-11.5 188.07,-13.39 53.65,-1.63 107.28,-7.23 160.98,-7.37 52.19,-0.13 104.52,-5.36 156.71,-2.82 27.64,1.35 28.15,0.47 22.58,-36.52 -10.4,-69.08 -16.68,-139.16 -19.09,-210.07 -0.76,-22.57 0.14,-45.53 1.83,-68.16 2.11,-28.39 12.5,-40.01 32.28,-40.95 23.94,-1.12 40.29,16.82 54.89,39.78 26.26,41.32 46.22,89.05 65.88,136.84 21.39,52.01 41.6,105.08 61.35,158.45 7.73,20.89 17.12,32.06 35.16,31.59 31.36,-0.82 62.66,2.18 94.01,2.91 15.82,0.37 17.83,-3.06 13.78,-23.86 -10.3,-52.81 -18.29,-106.42 -25.16,-160.48 -7.03,-55.26 -10.35,-111.02 -8.08,-167.63 1.37,-34.14 21.01,-35.95 34.36,-24.97 9.66,7.95 16.39,20.5 22.41,33.53 19.52,42.3 35.95,87.12 51.14,132.96 19.56,59.04 38.03,118.86 54.17,180.03 6.93,26.29 17.94,34.63 37.06,34.64 43.21,0.04 86.35,2.84 129.52,4.46 4.87,0.19 9.75,0.31 14.63,-0.03 6.76,-0.47 10.5,-5.34 9.68,-15.36 -0.48,-5.85 -1.38,-11.61 -2.04,-17.43 -8.38,-73.7 -14.22,-147.92 -15.99,-222.92 -0.35,-14.72 -0.06,-29.77 1.57,-44.39 3.48,-31.26 21.75,-43.12 40.24,-26.52 5.13,4.61 9.53,11.03 13.74,17.32 10.86,16.24 19.77,34.63 27.87,53.88 31.3,74.33 58.45,151.84 82.49,231.61 5.65,18.75 13.33,27.01 27.95,26.79 25.8,-0.4 51.53,2.02 77.32,1.99 26.46,-0.03 52.96,-1.3 79.43,-2.56 14.1,-0.67 16,-3.92 15.6,-22.88 0,-2.95 -0.5,-5.85 -0.7,-8.8 -5.2,-88.37 -8.4,-176.89 -2,-266.1 1.1,-14.82 1.9,-29.57 5.4,-43.95 8.2,-33.37 22.9,-47.98 47.8,-48.03 24.9,-0.05 43.1,16.85 59.1,41.14 22,33.49 40.4,70.72 57.4,109.59 29,66.13 52.9,136.21 77.4,205.82 9.7,27.49 11.8,28.36 28.4,8.56 78.6,-93.74 108.9,-212.03 96.7,-351.67 -0.7,-7.8 -1.7,-15.62 -1.6,-23.45 0.1,-10.46 -1.4,-24.49 8.8,-26.64 9.9,-2.06 12,10.67 12.9,21.71 1.2,14.63 2.3,29.37 2.3,44.13 0.1,20.88 2.1,41.02 5.3,61.23 13.8,85.96 30.3,170.74 45.9,255.9 6.3,33.86 5.7,33.41 29.8,35.46 41.7,3.55 83.6,-1.16 125.4,-1.4 27.9,-0.16 55.7,-2.81 83.6,-6.14 30.7,-3.66 61.2,3.4 91.9,-2.98 6.8,-1.41 13.2,3.83 12.2,14.9 -1,12.31 -7.7,15.51 -15.7,13.38 -6.8,-1.8 -13.6,-4.76 -20.5,-4.64 -39,0.63 -78,0.81 -117,3.51 -36.3,2.5 -72.5,7.38 -108.7,5.5 -16.7,-0.87 -33.4,-1.3 -50.2,-1.13 -17.8,0.19 -20.4,4.46 -16,28.02 9.6,51.07 18.1,102.54 25.3,154.5 9,64.4 18.5,128.64 21.5,194.68 0.8,17.76 0.6,35.69 -3.2,53.05 -3.8,16.94 -10.9,22.33 -22.6,18.2 -6.7,-2.39 -12.7,-6.87 -18.3,-12.81 -13.7,-14.59 -26.9,-29.8 -38.7,-47.5 -50.1,-75 -91.8,-158.81 -127.8,-248.69 -12.9,-32.1 -25.6,-64.32 -38.6,-96.33 -8.4,-20.59 -11.1,-21.81 -26.3,-9.06 -13.4,11.3 -26.6,22.8 -40.6,32.87 -41.7,30.25 -85.5,52.03 -130,71.67 -29.9,13.17 -27.3,5.05 -23.6,47.89 5.3,60.63 7.2,121.46 7.8,182.67 0.3,23.04 -1.7,45.54 -5.4,67.77 -5.8,34.55 -21.3,43.59 -42,25.77 -11.2,-9.7 -19.94,-23.46 -28.93,-36.74 -40.56,-59.94 -72.18,-129.2 -99.41,-202.43 -8.36,-22.5 -18.69,-28.76 -34.85,-24.5 -9.69,2.56 -19.39,3.36 -29.17,4.26 -29.23,2.69 -58.31,9.3 -87.69,9.66 -14.88,0.19 -16.66,5.01 -15.35,25.82 2.72,43.08 5.92,86.08 8.9,129.11 1.57,22.69 1.55,45.52 -3.16,67.77 -6.92,32.64 -21.44,40.84 -41.48,24.64 -9.66,-7.81 -17.32,-18.91 -24.95,-30.01 -36.91,-53.71 -68.94,-112.97 -94.45,-178.83 -8.76,-22.63 -18.46,-34.13 -37.48,-27.73 -6.65,2.24 -13.9,0.37 -20.86,0.22 -23,-0.52 -45.99,-0.95 -68.97,-1.74 -9.44,-0.33 -13,5.27 -10.61,18.18 1.05,5.67 2.15,11.33 3.14,17.03 7.89,45.63 16.14,91.12 23.47,136.96 3.98,24.84 6.53,50.44 2.57,76.23 -3.53,23 -12.9,29.11 -28.01,20.17 -5.81,-3.44 -10.8,-8.53 -15.11,-14.81 -8.57,-12.51 -17.14,-25.03 -25.33,-38.03 -37.16,-58.99 -65.49,-126.58 -90.9,-196.79 -6.77,-18.71 -15.81,-26.24 -30.85,-26.61 -55.73,-1.38 -111.39,-4.44 -167.09,-6.67 -5.41,-0.22 -11.05,-2.41 -18.77,4.64 9.06,47.17 20.5,92.03 31.56,137.06 z"
         style="fill:none;stroke:#fbc657;stroke-width:5;stroke-linecap:butt;stroke-linejoin:miter;stroke-miterlimit:10;stroke-dasharray:none;stroke-opacity:1"
         id="path28" />
    </g>
  </g>
</svg>
